G04 #@! TF.FileFunction,Soldermask,Bot*
%FSLAX46Y46*%
G04 Gerber Fmt 4.6, Leading zero omitted, Abs format (unit mm)*
G04 Created by KiCad (PCBNEW 4.0.2+dfsg1-stable) date Mon 17 Oct 2016 06:19:30 PM CST*
%MOMM*%
G01*
G04 APERTURE LIST*
%ADD10C,0.100000*%
%ADD11C,20.400000*%
%ADD12R,1.600000X1.150000*%
%ADD13R,1.150000X1.600000*%
%ADD14O,1.650000X1.650000*%
%ADD15O,2.200000X1.950000*%
%ADD16C,1.300000*%
%ADD17R,2.000000X1.400000*%
%ADD18R,1.400000X2.000000*%
%ADD19C,3.600000*%
G04 APERTURE END LIST*
D10*
D11*
X100000000Y-100000000D03*
D12*
X100950000Y-116250000D03*
X99050000Y-116250000D03*
D10*
G36*
X112080850Y-109855977D02*
X112894023Y-110669150D01*
X111762652Y-111800521D01*
X110949479Y-110987348D01*
X112080850Y-109855977D01*
X112080850Y-109855977D01*
G37*
G36*
X110737348Y-111199479D02*
X111550521Y-112012652D01*
X110419150Y-113144023D01*
X109605977Y-112330850D01*
X110737348Y-111199479D01*
X110737348Y-111199479D01*
G37*
D13*
X116250000Y-99050000D03*
X116250000Y-100950000D03*
D10*
G36*
X109605977Y-87669150D02*
X110419150Y-86855977D01*
X111550521Y-87987348D01*
X110737348Y-88800521D01*
X109605977Y-87669150D01*
X109605977Y-87669150D01*
G37*
G36*
X110949479Y-89012652D02*
X111762652Y-88199479D01*
X112894023Y-89330850D01*
X112080850Y-90144023D01*
X110949479Y-89012652D01*
X110949479Y-89012652D01*
G37*
D12*
X99050000Y-83750000D03*
X100950000Y-83750000D03*
D10*
G36*
X87919150Y-90144023D02*
X87105977Y-89330850D01*
X88237348Y-88199479D01*
X89050521Y-89012652D01*
X87919150Y-90144023D01*
X87919150Y-90144023D01*
G37*
G36*
X89262652Y-88800521D02*
X88449479Y-87987348D01*
X89580850Y-86855977D01*
X90394023Y-87669150D01*
X89262652Y-88800521D01*
X89262652Y-88800521D01*
G37*
D13*
X83750000Y-100950000D03*
X83750000Y-99050000D03*
D10*
G36*
X90394023Y-112330850D02*
X89580850Y-113144023D01*
X88449479Y-112012652D01*
X89262652Y-111199479D01*
X90394023Y-112330850D01*
X90394023Y-112330850D01*
G37*
G36*
X89050521Y-110987348D02*
X88237348Y-111800521D01*
X87105977Y-110669150D01*
X87919150Y-109855977D01*
X89050521Y-110987348D01*
X89050521Y-110987348D01*
G37*
D14*
X102500900Y-79562540D03*
X97500900Y-79562540D03*
D15*
X103500900Y-76862540D03*
X96500900Y-76862540D03*
D16*
X123075000Y-101500000D03*
X123075000Y-98500000D03*
X76925000Y-98500000D03*
X76925000Y-101500000D03*
D17*
X102500000Y-118400000D03*
X102500000Y-121600000D03*
X97500000Y-118400000D03*
X97500000Y-121600000D03*
D10*
G36*
X114424264Y-112302944D02*
X113434314Y-111312994D01*
X114848528Y-109898780D01*
X115838478Y-110888730D01*
X114424264Y-112302944D01*
X114424264Y-112302944D01*
G37*
G36*
X116687006Y-114565686D02*
X115697056Y-113575736D01*
X117111270Y-112161522D01*
X118101220Y-113151472D01*
X116687006Y-114565686D01*
X116687006Y-114565686D01*
G37*
G36*
X110888730Y-115838478D02*
X109898780Y-114848528D01*
X111312994Y-113434314D01*
X112302944Y-114424264D01*
X110888730Y-115838478D01*
X110888730Y-115838478D01*
G37*
G36*
X113151472Y-118101220D02*
X112161522Y-117111270D01*
X113575736Y-115697056D01*
X114565686Y-116687006D01*
X113151472Y-118101220D01*
X113151472Y-118101220D01*
G37*
D18*
X118400000Y-97500000D03*
X121600000Y-97500000D03*
X118400000Y-102500000D03*
X121600000Y-102500000D03*
D10*
G36*
X112302944Y-85575736D02*
X111312994Y-86565686D01*
X109898780Y-85151472D01*
X110888730Y-84161522D01*
X112302944Y-85575736D01*
X112302944Y-85575736D01*
G37*
G36*
X114565686Y-83312994D02*
X113575736Y-84302944D01*
X112161522Y-82888730D01*
X113151472Y-81898780D01*
X114565686Y-83312994D01*
X114565686Y-83312994D01*
G37*
G36*
X115838478Y-89111270D02*
X114848528Y-90101220D01*
X113434314Y-88687006D01*
X114424264Y-87697056D01*
X115838478Y-89111270D01*
X115838478Y-89111270D01*
G37*
G36*
X118101220Y-86848528D02*
X117111270Y-87838478D01*
X115697056Y-86424264D01*
X116687006Y-85434314D01*
X118101220Y-86848528D01*
X118101220Y-86848528D01*
G37*
D17*
X97500000Y-81600000D03*
X97500000Y-78400000D03*
X102500000Y-81600000D03*
X102500000Y-78400000D03*
D18*
X81600000Y-102500000D03*
X78400000Y-102500000D03*
X81600000Y-97500000D03*
X78400000Y-97500000D03*
D10*
G36*
X87697056Y-114424264D02*
X88687006Y-113434314D01*
X90101220Y-114848528D01*
X89111270Y-115838478D01*
X87697056Y-114424264D01*
X87697056Y-114424264D01*
G37*
G36*
X85434314Y-116687006D02*
X86424264Y-115697056D01*
X87838478Y-117111270D01*
X86848528Y-118101220D01*
X85434314Y-116687006D01*
X85434314Y-116687006D01*
G37*
G36*
X84161522Y-110888730D02*
X85151472Y-109898780D01*
X86565686Y-111312994D01*
X85575736Y-112302944D01*
X84161522Y-110888730D01*
X84161522Y-110888730D01*
G37*
G36*
X81898780Y-113151472D02*
X82888730Y-112161522D01*
X84302944Y-113575736D01*
X83312994Y-114565686D01*
X81898780Y-113151472D01*
X81898780Y-113151472D01*
G37*
G36*
X85575736Y-87697056D02*
X86565686Y-88687006D01*
X85151472Y-90101220D01*
X84161522Y-89111270D01*
X85575736Y-87697056D01*
X85575736Y-87697056D01*
G37*
G36*
X83312994Y-85434314D02*
X84302944Y-86424264D01*
X82888730Y-87838478D01*
X81898780Y-86848528D01*
X83312994Y-85434314D01*
X83312994Y-85434314D01*
G37*
G36*
X89111270Y-84161522D02*
X90101220Y-85151472D01*
X88687006Y-86565686D01*
X87697056Y-85575736D01*
X89111270Y-84161522D01*
X89111270Y-84161522D01*
G37*
G36*
X86848528Y-81898780D02*
X87838478Y-82888730D01*
X86424264Y-84302944D01*
X85434314Y-83312994D01*
X86848528Y-81898780D01*
X86848528Y-81898780D01*
G37*
D19*
X120000000Y-107500000D03*
X120000000Y-92500000D03*
X80000000Y-92500000D03*
X80000000Y-107500000D03*
M02*
