G04 #@! TF.FileFunction,Legend,Top*
%FSLAX46Y46*%
G04 Gerber Fmt 4.6, Leading zero omitted, Abs format (unit mm)*
G04 Created by KiCad (PCBNEW 4.0.2+dfsg1-stable) date Mon 17 Oct 2016 06:19:30 PM CST*
%MOMM*%
G01*
G04 APERTURE LIST*
%ADD10C,0.100000*%
%ADD11C,0.150000*%
G04 APERTURE END LIST*
D10*
D11*
X88338095Y-87352381D02*
X88338095Y-86352381D01*
X88576190Y-86352381D01*
X88719048Y-86400000D01*
X88814286Y-86495238D01*
X88861905Y-86590476D01*
X88909524Y-86780952D01*
X88909524Y-86923810D01*
X88861905Y-87114286D01*
X88814286Y-87209524D01*
X88719048Y-87304762D01*
X88576190Y-87352381D01*
X88338095Y-87352381D01*
X94214286Y-81652381D02*
X94785715Y-81652381D01*
X94500000Y-82652381D02*
X94500000Y-81652381D01*
X121780952Y-104652381D02*
X121971429Y-104652381D01*
X122066667Y-104700000D01*
X122161905Y-104795238D01*
X122209524Y-104985714D01*
X122209524Y-105319048D01*
X122161905Y-105509524D01*
X122066667Y-105604762D01*
X121971429Y-105652381D01*
X121780952Y-105652381D01*
X121685714Y-105604762D01*
X121590476Y-105509524D01*
X121542857Y-105319048D01*
X121542857Y-104985714D01*
X121590476Y-104795238D01*
X121685714Y-104700000D01*
X121780952Y-104652381D01*
X122638095Y-105652381D02*
X122638095Y-104652381D01*
X123209524Y-105652381D01*
X123209524Y-104652381D01*
X76580953Y-105328571D02*
X76723810Y-105376190D01*
X76771429Y-105423810D01*
X76819048Y-105519048D01*
X76819048Y-105661905D01*
X76771429Y-105757143D01*
X76723810Y-105804762D01*
X76628572Y-105852381D01*
X76247619Y-105852381D01*
X76247619Y-104852381D01*
X76580953Y-104852381D01*
X76676191Y-104900000D01*
X76723810Y-104947619D01*
X76771429Y-105042857D01*
X76771429Y-105138095D01*
X76723810Y-105233333D01*
X76676191Y-105280952D01*
X76580953Y-105328571D01*
X76247619Y-105328571D01*
X77200000Y-105566667D02*
X77676191Y-105566667D01*
X77104762Y-105852381D02*
X77438095Y-104852381D01*
X77771429Y-105852381D01*
X77961905Y-104852381D02*
X78533334Y-104852381D01*
X78247619Y-105852381D02*
X78247619Y-104852381D01*
X78723810Y-104852381D02*
X79295239Y-104852381D01*
X79009524Y-105852381D02*
X79009524Y-104852381D01*
X76809524Y-94252381D02*
X76333333Y-94252381D01*
X76285714Y-94728571D01*
X76333333Y-94680952D01*
X76428571Y-94633333D01*
X76666667Y-94633333D01*
X76761905Y-94680952D01*
X76809524Y-94728571D01*
X76857143Y-94823810D01*
X76857143Y-95061905D01*
X76809524Y-95157143D01*
X76761905Y-95204762D01*
X76666667Y-95252381D01*
X76428571Y-95252381D01*
X76333333Y-95204762D01*
X76285714Y-95157143D01*
X77142857Y-94252381D02*
X77476190Y-95252381D01*
X77809524Y-94252381D01*
X106800000Y-87250000D02*
X106800000Y-86550000D01*
X108000000Y-86550000D02*
X108000000Y-87250000D01*
X108500000Y-87250000D02*
X108500000Y-86550000D01*
X109700000Y-86550000D02*
X109700000Y-87250000D01*
X83200000Y-102350000D02*
X83200000Y-103050000D01*
X82000000Y-103050000D02*
X82000000Y-102350000D01*
X86800000Y-90950000D02*
X86800000Y-90250000D01*
X88000000Y-90250000D02*
X88000000Y-90950000D01*
X113400000Y-103950000D02*
X113400000Y-103250000D01*
X114600000Y-103250000D02*
X114600000Y-103950000D01*
X115001120Y-99299040D02*
X115001120Y-104500960D01*
X117398880Y-104500960D02*
X117398880Y-99299040D01*
X118498700Y-97300060D02*
X117398880Y-97300060D01*
X117998320Y-96700620D02*
X117998320Y-97899500D01*
X117398880Y-97904580D02*
X115001120Y-97904580D01*
X103100000Y-86817500D02*
X103100000Y-87198500D01*
X103100000Y-85801500D02*
X103100000Y-86182500D01*
X103100000Y-86182500D02*
X103481000Y-86817500D01*
X103481000Y-86817500D02*
X102719000Y-86817500D01*
X102719000Y-86817500D02*
X103100000Y-86182500D01*
X103608000Y-86182500D02*
X102592000Y-86182500D01*
X102200000Y-84500000D02*
X102200000Y-88040000D01*
X104000000Y-84500000D02*
X104000000Y-88040000D01*
X100800000Y-86817500D02*
X100800000Y-87198500D01*
X100800000Y-85801500D02*
X100800000Y-86182500D01*
X100800000Y-86182500D02*
X101181000Y-86817500D01*
X101181000Y-86817500D02*
X100419000Y-86817500D01*
X100419000Y-86817500D02*
X100800000Y-86182500D01*
X101308000Y-86182500D02*
X100292000Y-86182500D01*
X99900000Y-84500000D02*
X99900000Y-88040000D01*
X101700000Y-84500000D02*
X101700000Y-88040000D01*
X105400000Y-86817500D02*
X105400000Y-87198500D01*
X105400000Y-85801500D02*
X105400000Y-86182500D01*
X105400000Y-86182500D02*
X105781000Y-86817500D01*
X105781000Y-86817500D02*
X105019000Y-86817500D01*
X105019000Y-86817500D02*
X105400000Y-86182500D01*
X105908000Y-86182500D02*
X104892000Y-86182500D01*
X104500000Y-84500000D02*
X104500000Y-88040000D01*
X106300000Y-84500000D02*
X106300000Y-88040000D01*
X91150000Y-86300000D02*
X91150000Y-88200000D01*
X92250000Y-86300000D02*
X92250000Y-88200000D01*
X91700000Y-87200000D02*
X91700000Y-87650000D01*
X91950000Y-87150000D02*
X91450000Y-87150000D01*
X91700000Y-87150000D02*
X91950000Y-87400000D01*
X91950000Y-87400000D02*
X91450000Y-87400000D01*
X91450000Y-87400000D02*
X91700000Y-87150000D01*
X107950000Y-79650000D02*
X107950000Y-81550000D01*
X109050000Y-79650000D02*
X109050000Y-81550000D01*
X108500000Y-80550000D02*
X108500000Y-81000000D01*
X108750000Y-80500000D02*
X108250000Y-80500000D01*
X108500000Y-80500000D02*
X108750000Y-80750000D01*
X108750000Y-80750000D02*
X108250000Y-80750000D01*
X108250000Y-80750000D02*
X108500000Y-80500000D01*
X85450000Y-102000000D02*
X85450000Y-103900000D01*
X86550000Y-102000000D02*
X86550000Y-103900000D01*
X86000000Y-102900000D02*
X86000000Y-103350000D01*
X86250000Y-102850000D02*
X85750000Y-102850000D01*
X86000000Y-102850000D02*
X86250000Y-103100000D01*
X86250000Y-103100000D02*
X85750000Y-103100000D01*
X85750000Y-103100000D02*
X86000000Y-102850000D01*
X115250000Y-93100000D02*
X115250000Y-95000000D01*
X116350000Y-93100000D02*
X116350000Y-95000000D01*
X115800000Y-94000000D02*
X115800000Y-94450000D01*
X116050000Y-93950000D02*
X115550000Y-93950000D01*
X115800000Y-93950000D02*
X116050000Y-94200000D01*
X116050000Y-94200000D02*
X115550000Y-94200000D01*
X115550000Y-94200000D02*
X115800000Y-93950000D01*
X110400000Y-93082500D02*
X110400000Y-92701500D01*
X110400000Y-94098500D02*
X110400000Y-93717500D01*
X110400000Y-93717500D02*
X110019000Y-93082500D01*
X110019000Y-93082500D02*
X110781000Y-93082500D01*
X110781000Y-93082500D02*
X110400000Y-93717500D01*
X109892000Y-93717500D02*
X110908000Y-93717500D01*
X111300000Y-95400000D02*
X111300000Y-91860000D01*
X109500000Y-95400000D02*
X109500000Y-91860000D01*
X103050000Y-97955000D02*
X103050000Y-97750000D01*
X97550000Y-97955000D02*
X97550000Y-97655000D01*
X97550000Y-92445000D02*
X97550000Y-92745000D01*
X103050000Y-92445000D02*
X103050000Y-92745000D01*
X103050000Y-97955000D02*
X97550000Y-97955000D01*
X103050000Y-92445000D02*
X97550000Y-92445000D01*
X103050000Y-97750000D02*
X104800000Y-97750000D01*
X104350900Y-74182540D02*
X95650900Y-74182540D01*
X104350900Y-80587540D02*
X95650900Y-80587540D01*
X95650900Y-80587540D02*
X95650900Y-74182540D01*
X95650900Y-75412540D02*
X104350900Y-75412540D01*
X104350900Y-74182540D02*
X104350900Y-80587540D01*
X99425000Y-86250000D02*
X99425000Y-87250000D01*
X98075000Y-87250000D02*
X98075000Y-86250000D01*
X97675000Y-86250000D02*
X97675000Y-87250000D01*
X96325000Y-87250000D02*
X96325000Y-86250000D01*
X94575000Y-87250000D02*
X94575000Y-86250000D01*
X95925000Y-86250000D02*
X95925000Y-87250000D01*
X105825000Y-81250000D02*
X105825000Y-80250000D01*
X107175000Y-80250000D02*
X107175000Y-81250000D01*
X92825000Y-87300000D02*
X92825000Y-86300000D01*
X94175000Y-86300000D02*
X94175000Y-87300000D01*
X83625000Y-103000000D02*
X83625000Y-102000000D01*
X84975000Y-102000000D02*
X84975000Y-103000000D01*
X113425000Y-94100000D02*
X113425000Y-93100000D01*
X114775000Y-93100000D02*
X114775000Y-94100000D01*
X85025000Y-90900000D02*
X85025000Y-89900000D01*
X86375000Y-89900000D02*
X86375000Y-90900000D01*
X113075000Y-93100000D02*
X113075000Y-94100000D01*
X111725000Y-94100000D02*
X111725000Y-93100000D01*
X91790423Y-81475923D02*
X92578434Y-80860262D01*
X93409577Y-81924077D02*
X92621566Y-82539738D01*
X124075000Y-99250000D02*
X124375000Y-99250000D01*
X124075000Y-100750000D02*
X124375000Y-100750000D01*
X121775000Y-98600000D02*
X121775000Y-98400000D01*
X125675000Y-101400000D02*
X125875000Y-101200000D01*
X125675000Y-100100000D02*
X125875000Y-100300000D01*
X124375000Y-101400000D02*
X125675000Y-101400000D01*
X125875000Y-101200000D02*
X125875000Y-100300000D01*
X125675000Y-100100000D02*
X124375000Y-100100000D01*
X124375000Y-102850000D02*
X124375000Y-97150000D01*
X121775000Y-101600000D02*
X121775000Y-99900000D01*
X122675000Y-103350000D02*
X123475000Y-103350000D01*
X123475000Y-96650000D02*
X122675000Y-96650000D01*
X75925000Y-100750000D02*
X75625000Y-100750000D01*
X75925000Y-99250000D02*
X75625000Y-99250000D01*
X78225000Y-101400000D02*
X78225000Y-101600000D01*
X74325000Y-98600000D02*
X74125000Y-98800000D01*
X74325000Y-99900000D02*
X74125000Y-99700000D01*
X75625000Y-98600000D02*
X74325000Y-98600000D01*
X74125000Y-98800000D02*
X74125000Y-99700000D01*
X74325000Y-99900000D02*
X75625000Y-99900000D01*
X75625000Y-97150000D02*
X75625000Y-102850000D01*
X78225000Y-98400000D02*
X78225000Y-100100000D01*
X77325000Y-96650000D02*
X76525000Y-96650000D01*
X76525000Y-103350000D02*
X77325000Y-103350000D01*
X116000000Y-86700000D02*
G75*
G03X116000000Y-86700000I-100000J0D01*
G01*
X115650000Y-87250000D02*
X115650000Y-86750000D01*
X112750000Y-87250000D02*
X115650000Y-87250000D01*
X112750000Y-86750000D02*
X112750000Y-87250000D01*
X115650000Y-86750000D02*
X112750000Y-86750000D01*
X88100000Y-96800000D02*
G75*
G03X88100000Y-96800000I-100000J0D01*
G01*
X87750000Y-97450000D02*
X87750000Y-96950000D01*
X84850000Y-97450000D02*
X87750000Y-97450000D01*
X84850000Y-96950000D02*
X84850000Y-97450000D01*
X87750000Y-96950000D02*
X84850000Y-96950000D01*
X111600000Y-99900000D02*
G75*
G03X111600000Y-99900000I-100000J0D01*
G01*
X111250000Y-100450000D02*
X111250000Y-99950000D01*
X108350000Y-100450000D02*
X111250000Y-100450000D01*
X108350000Y-99950000D02*
X108350000Y-100450000D01*
X111250000Y-99950000D02*
X108350000Y-99950000D01*
X100000000Y-117500000D02*
X101000000Y-118500000D01*
X100000000Y-123000000D02*
X100000000Y-117500000D01*
X100000000Y-117500000D02*
X99000000Y-118500000D01*
X113000000Y-119000000D02*
X108000000Y-123500000D01*
X87000000Y-119000000D02*
X92000000Y-123500000D01*
X92000000Y-123500000D02*
X108000000Y-123500000D01*
X103000000Y-101000000D02*
X113000000Y-106000000D01*
X97000000Y-101000000D02*
X87000000Y-106000000D01*
X100000000Y-101000000D02*
X103000000Y-101000000D01*
X100000000Y-101000000D02*
X97000000Y-101000000D01*
X113000000Y-112500000D02*
X113000000Y-119000000D01*
X113000000Y-112500000D02*
X113000000Y-106000000D01*
X87000000Y-112500000D02*
X87000000Y-119000000D01*
X87000000Y-112500000D02*
X87000000Y-106000000D01*
X91581116Y-80682664D02*
X81573380Y-88501564D01*
X81573380Y-88501564D02*
X80009600Y-86500017D01*
X80009600Y-86500017D02*
X90017336Y-78681116D01*
X93975692Y-79167141D02*
X92754275Y-80121417D01*
X91581116Y-80682664D02*
X90017336Y-78681116D01*
X90845725Y-77678583D02*
X92067141Y-76724308D01*
X92067141Y-76724308D02*
X93975692Y-79167141D01*
X87790423Y-84575923D02*
X88578434Y-83960262D01*
X89409577Y-85024077D02*
X88621566Y-85639738D01*
X92498880Y-101500960D02*
X92498880Y-96299040D01*
X90101120Y-96299040D02*
X90101120Y-101500960D01*
X89001300Y-103499940D02*
X90101120Y-103499940D01*
X89501680Y-104099380D02*
X89501680Y-102900500D01*
X90101120Y-102895420D02*
X92498880Y-102895420D01*
X107757143Y-89816666D02*
X107804762Y-89864285D01*
X107852381Y-90007142D01*
X107852381Y-90102380D01*
X107804762Y-90245238D01*
X107709524Y-90340476D01*
X107614286Y-90388095D01*
X107423810Y-90435714D01*
X107280952Y-90435714D01*
X107090476Y-90388095D01*
X106995238Y-90340476D01*
X106900000Y-90245238D01*
X106852381Y-90102380D01*
X106852381Y-90007142D01*
X106900000Y-89864285D01*
X106947619Y-89816666D01*
X107852381Y-88864285D02*
X107852381Y-89435714D01*
X107852381Y-89150000D02*
X106852381Y-89150000D01*
X106995238Y-89245238D01*
X107090476Y-89340476D01*
X107138095Y-89435714D01*
X109457143Y-89866666D02*
X109504762Y-89914285D01*
X109552381Y-90057142D01*
X109552381Y-90152380D01*
X109504762Y-90295238D01*
X109409524Y-90390476D01*
X109314286Y-90438095D01*
X109123810Y-90485714D01*
X108980952Y-90485714D01*
X108790476Y-90438095D01*
X108695238Y-90390476D01*
X108600000Y-90295238D01*
X108552381Y-90152380D01*
X108552381Y-90057142D01*
X108600000Y-89914285D01*
X108647619Y-89866666D01*
X108647619Y-89485714D02*
X108600000Y-89438095D01*
X108552381Y-89342857D01*
X108552381Y-89104761D01*
X108600000Y-89009523D01*
X108647619Y-88961904D01*
X108742857Y-88914285D01*
X108838095Y-88914285D01*
X108980952Y-88961904D01*
X109552381Y-89533333D01*
X109552381Y-88914285D01*
X82957143Y-105866666D02*
X83004762Y-105914285D01*
X83052381Y-106057142D01*
X83052381Y-106152380D01*
X83004762Y-106295238D01*
X82909524Y-106390476D01*
X82814286Y-106438095D01*
X82623810Y-106485714D01*
X82480952Y-106485714D01*
X82290476Y-106438095D01*
X82195238Y-106390476D01*
X82100000Y-106295238D01*
X82052381Y-106152380D01*
X82052381Y-106057142D01*
X82100000Y-105914285D01*
X82147619Y-105866666D01*
X82052381Y-105533333D02*
X82052381Y-104914285D01*
X82433333Y-105247619D01*
X82433333Y-105104761D01*
X82480952Y-105009523D01*
X82528571Y-104961904D01*
X82623810Y-104914285D01*
X82861905Y-104914285D01*
X82957143Y-104961904D01*
X83004762Y-105009523D01*
X83052381Y-105104761D01*
X83052381Y-105390476D01*
X83004762Y-105485714D01*
X82957143Y-105533333D01*
X87507143Y-93766666D02*
X87554762Y-93814285D01*
X87602381Y-93957142D01*
X87602381Y-94052380D01*
X87554762Y-94195238D01*
X87459524Y-94290476D01*
X87364286Y-94338095D01*
X87173810Y-94385714D01*
X87030952Y-94385714D01*
X86840476Y-94338095D01*
X86745238Y-94290476D01*
X86650000Y-94195238D01*
X86602381Y-94052380D01*
X86602381Y-93957142D01*
X86650000Y-93814285D01*
X86697619Y-93766666D01*
X86935714Y-92909523D02*
X87602381Y-92909523D01*
X86554762Y-93147619D02*
X87269048Y-93385714D01*
X87269048Y-92766666D01*
X114357143Y-106766666D02*
X114404762Y-106814285D01*
X114452381Y-106957142D01*
X114452381Y-107052380D01*
X114404762Y-107195238D01*
X114309524Y-107290476D01*
X114214286Y-107338095D01*
X114023810Y-107385714D01*
X113880952Y-107385714D01*
X113690476Y-107338095D01*
X113595238Y-107290476D01*
X113500000Y-107195238D01*
X113452381Y-107052380D01*
X113452381Y-106957142D01*
X113500000Y-106814285D01*
X113547619Y-106766666D01*
X113452381Y-105909523D02*
X113452381Y-106100000D01*
X113500000Y-106195238D01*
X113547619Y-106242857D01*
X113690476Y-106338095D01*
X113880952Y-106385714D01*
X114261905Y-106385714D01*
X114357143Y-106338095D01*
X114404762Y-106290476D01*
X114452381Y-106195238D01*
X114452381Y-106004761D01*
X114404762Y-105909523D01*
X114357143Y-105861904D01*
X114261905Y-105814285D01*
X114023810Y-105814285D01*
X113928571Y-105861904D01*
X113880952Y-105909523D01*
X113833333Y-106004761D01*
X113833333Y-106195238D01*
X113880952Y-106290476D01*
X113928571Y-106338095D01*
X114023810Y-106385714D01*
X116657143Y-106766666D02*
X116704762Y-106814285D01*
X116752381Y-106957142D01*
X116752381Y-107052380D01*
X116704762Y-107195238D01*
X116609524Y-107290476D01*
X116514286Y-107338095D01*
X116323810Y-107385714D01*
X116180952Y-107385714D01*
X115990476Y-107338095D01*
X115895238Y-107290476D01*
X115800000Y-107195238D01*
X115752381Y-107052380D01*
X115752381Y-106957142D01*
X115800000Y-106814285D01*
X115847619Y-106766666D01*
X115752381Y-106433333D02*
X115752381Y-105766666D01*
X116752381Y-106195238D01*
X118072289Y-97681012D02*
X118072289Y-96919107D01*
X118453241Y-97300059D02*
X117691336Y-97300059D01*
X103552381Y-90488095D02*
X102552381Y-90488095D01*
X102552381Y-90250000D01*
X102600000Y-90107142D01*
X102695238Y-90011904D01*
X102790476Y-89964285D01*
X102980952Y-89916666D01*
X103123810Y-89916666D01*
X103314286Y-89964285D01*
X103409524Y-90011904D01*
X103504762Y-90107142D01*
X103552381Y-90250000D01*
X103552381Y-90488095D01*
X103552381Y-88964285D02*
X103552381Y-89535714D01*
X103552381Y-89250000D02*
X102552381Y-89250000D01*
X102695238Y-89345238D01*
X102790476Y-89440476D01*
X102838095Y-89535714D01*
X101352381Y-90438095D02*
X100352381Y-90438095D01*
X100352381Y-90200000D01*
X100400000Y-90057142D01*
X100495238Y-89961904D01*
X100590476Y-89914285D01*
X100780952Y-89866666D01*
X100923810Y-89866666D01*
X101114286Y-89914285D01*
X101209524Y-89961904D01*
X101304762Y-90057142D01*
X101352381Y-90200000D01*
X101352381Y-90438095D01*
X100447619Y-89485714D02*
X100400000Y-89438095D01*
X100352381Y-89342857D01*
X100352381Y-89104761D01*
X100400000Y-89009523D01*
X100447619Y-88961904D01*
X100542857Y-88914285D01*
X100638095Y-88914285D01*
X100780952Y-88961904D01*
X101352381Y-89533333D01*
X101352381Y-88914285D01*
X105852381Y-90538095D02*
X104852381Y-90538095D01*
X104852381Y-90300000D01*
X104900000Y-90157142D01*
X104995238Y-90061904D01*
X105090476Y-90014285D01*
X105280952Y-89966666D01*
X105423810Y-89966666D01*
X105614286Y-90014285D01*
X105709524Y-90061904D01*
X105804762Y-90157142D01*
X105852381Y-90300000D01*
X105852381Y-90538095D01*
X104852381Y-89633333D02*
X104852381Y-89014285D01*
X105233333Y-89347619D01*
X105233333Y-89204761D01*
X105280952Y-89109523D01*
X105328571Y-89061904D01*
X105423810Y-89014285D01*
X105661905Y-89014285D01*
X105757143Y-89061904D01*
X105804762Y-89109523D01*
X105852381Y-89204761D01*
X105852381Y-89490476D01*
X105804762Y-89585714D01*
X105757143Y-89633333D01*
X92152381Y-90538095D02*
X91152381Y-90538095D01*
X91152381Y-90300000D01*
X91200000Y-90157142D01*
X91295238Y-90061904D01*
X91390476Y-90014285D01*
X91580952Y-89966666D01*
X91723810Y-89966666D01*
X91914286Y-90014285D01*
X92009524Y-90061904D01*
X92104762Y-90157142D01*
X92152381Y-90300000D01*
X92152381Y-90538095D01*
X91485714Y-89109523D02*
X92152381Y-89109523D01*
X91104762Y-89347619D02*
X91819048Y-89585714D01*
X91819048Y-88966666D01*
X108952381Y-78988095D02*
X107952381Y-78988095D01*
X107952381Y-78750000D01*
X108000000Y-78607142D01*
X108095238Y-78511904D01*
X108190476Y-78464285D01*
X108380952Y-78416666D01*
X108523810Y-78416666D01*
X108714286Y-78464285D01*
X108809524Y-78511904D01*
X108904762Y-78607142D01*
X108952381Y-78750000D01*
X108952381Y-78988095D01*
X107952381Y-77511904D02*
X107952381Y-77988095D01*
X108428571Y-78035714D01*
X108380952Y-77988095D01*
X108333333Y-77892857D01*
X108333333Y-77654761D01*
X108380952Y-77559523D01*
X108428571Y-77511904D01*
X108523810Y-77464285D01*
X108761905Y-77464285D01*
X108857143Y-77511904D01*
X108904762Y-77559523D01*
X108952381Y-77654761D01*
X108952381Y-77892857D01*
X108904762Y-77988095D01*
X108857143Y-78035714D01*
X86452381Y-106338095D02*
X85452381Y-106338095D01*
X85452381Y-106100000D01*
X85500000Y-105957142D01*
X85595238Y-105861904D01*
X85690476Y-105814285D01*
X85880952Y-105766666D01*
X86023810Y-105766666D01*
X86214286Y-105814285D01*
X86309524Y-105861904D01*
X86404762Y-105957142D01*
X86452381Y-106100000D01*
X86452381Y-106338095D01*
X85452381Y-104909523D02*
X85452381Y-105100000D01*
X85500000Y-105195238D01*
X85547619Y-105242857D01*
X85690476Y-105338095D01*
X85880952Y-105385714D01*
X86261905Y-105385714D01*
X86357143Y-105338095D01*
X86404762Y-105290476D01*
X86452381Y-105195238D01*
X86452381Y-105004761D01*
X86404762Y-104909523D01*
X86357143Y-104861904D01*
X86261905Y-104814285D01*
X86023810Y-104814285D01*
X85928571Y-104861904D01*
X85880952Y-104909523D01*
X85833333Y-105004761D01*
X85833333Y-105195238D01*
X85880952Y-105290476D01*
X85928571Y-105338095D01*
X86023810Y-105385714D01*
X116352381Y-97338095D02*
X115352381Y-97338095D01*
X115352381Y-97100000D01*
X115400000Y-96957142D01*
X115495238Y-96861904D01*
X115590476Y-96814285D01*
X115780952Y-96766666D01*
X115923810Y-96766666D01*
X116114286Y-96814285D01*
X116209524Y-96861904D01*
X116304762Y-96957142D01*
X116352381Y-97100000D01*
X116352381Y-97338095D01*
X115352381Y-96433333D02*
X115352381Y-95766666D01*
X116352381Y-96195238D01*
X110852381Y-97388095D02*
X109852381Y-97388095D01*
X109852381Y-97150000D01*
X109900000Y-97007142D01*
X109995238Y-96911904D01*
X110090476Y-96864285D01*
X110280952Y-96816666D01*
X110423810Y-96816666D01*
X110614286Y-96864285D01*
X110709524Y-96911904D01*
X110804762Y-97007142D01*
X110852381Y-97150000D01*
X110852381Y-97388095D01*
X110280952Y-96245238D02*
X110233333Y-96340476D01*
X110185714Y-96388095D01*
X110090476Y-96435714D01*
X110042857Y-96435714D01*
X109947619Y-96388095D01*
X109900000Y-96340476D01*
X109852381Y-96245238D01*
X109852381Y-96054761D01*
X109900000Y-95959523D01*
X109947619Y-95911904D01*
X110042857Y-95864285D01*
X110090476Y-95864285D01*
X110185714Y-95911904D01*
X110233333Y-95959523D01*
X110280952Y-96054761D01*
X110280952Y-96245238D01*
X110328571Y-96340476D01*
X110376190Y-96388095D01*
X110471429Y-96435714D01*
X110661905Y-96435714D01*
X110757143Y-96388095D01*
X110804762Y-96340476D01*
X110852381Y-96245238D01*
X110852381Y-96054761D01*
X110804762Y-95959523D01*
X110757143Y-95911904D01*
X110661905Y-95864285D01*
X110471429Y-95864285D01*
X110376190Y-95911904D01*
X110328571Y-95959523D01*
X110280952Y-96054761D01*
X106252381Y-96676190D02*
X105252381Y-96676190D01*
X106157143Y-95628571D02*
X106204762Y-95676190D01*
X106252381Y-95819047D01*
X106252381Y-95914285D01*
X106204762Y-96057143D01*
X106109524Y-96152381D01*
X106014286Y-96200000D01*
X105823810Y-96247619D01*
X105680952Y-96247619D01*
X105490476Y-96200000D01*
X105395238Y-96152381D01*
X105300000Y-96057143D01*
X105252381Y-95914285D01*
X105252381Y-95819047D01*
X105300000Y-95676190D01*
X105347619Y-95628571D01*
X106252381Y-94676190D02*
X106252381Y-95247619D01*
X106252381Y-94961905D02*
X105252381Y-94961905D01*
X105395238Y-95057143D01*
X105490476Y-95152381D01*
X105538095Y-95247619D01*
X99261905Y-81902381D02*
X99261905Y-80902381D01*
X99642858Y-80902381D01*
X99738096Y-80950000D01*
X99785715Y-80997619D01*
X99833334Y-81092857D01*
X99833334Y-81235714D01*
X99785715Y-81330952D01*
X99738096Y-81378571D01*
X99642858Y-81426190D01*
X99261905Y-81426190D01*
X100785715Y-81902381D02*
X100214286Y-81902381D01*
X100500000Y-81902381D02*
X100500000Y-80902381D01*
X100404762Y-81045238D01*
X100309524Y-81140476D01*
X100214286Y-81188095D01*
X99252381Y-89866666D02*
X98776190Y-90200000D01*
X99252381Y-90438095D02*
X98252381Y-90438095D01*
X98252381Y-90057142D01*
X98300000Y-89961904D01*
X98347619Y-89914285D01*
X98442857Y-89866666D01*
X98585714Y-89866666D01*
X98680952Y-89914285D01*
X98728571Y-89961904D01*
X98776190Y-90057142D01*
X98776190Y-90438095D01*
X99252381Y-88914285D02*
X99252381Y-89485714D01*
X99252381Y-89200000D02*
X98252381Y-89200000D01*
X98395238Y-89295238D01*
X98490476Y-89390476D01*
X98538095Y-89485714D01*
X97552381Y-89866666D02*
X97076190Y-90200000D01*
X97552381Y-90438095D02*
X96552381Y-90438095D01*
X96552381Y-90057142D01*
X96600000Y-89961904D01*
X96647619Y-89914285D01*
X96742857Y-89866666D01*
X96885714Y-89866666D01*
X96980952Y-89914285D01*
X97028571Y-89961904D01*
X97076190Y-90057142D01*
X97076190Y-90438095D01*
X96647619Y-89485714D02*
X96600000Y-89438095D01*
X96552381Y-89342857D01*
X96552381Y-89104761D01*
X96600000Y-89009523D01*
X96647619Y-88961904D01*
X96742857Y-88914285D01*
X96838095Y-88914285D01*
X96980952Y-88961904D01*
X97552381Y-89533333D01*
X97552381Y-88914285D01*
X95852381Y-89866666D02*
X95376190Y-90200000D01*
X95852381Y-90438095D02*
X94852381Y-90438095D01*
X94852381Y-90057142D01*
X94900000Y-89961904D01*
X94947619Y-89914285D01*
X95042857Y-89866666D01*
X95185714Y-89866666D01*
X95280952Y-89914285D01*
X95328571Y-89961904D01*
X95376190Y-90057142D01*
X95376190Y-90438095D01*
X94852381Y-89533333D02*
X94852381Y-88914285D01*
X95233333Y-89247619D01*
X95233333Y-89104761D01*
X95280952Y-89009523D01*
X95328571Y-88961904D01*
X95423810Y-88914285D01*
X95661905Y-88914285D01*
X95757143Y-88961904D01*
X95804762Y-89009523D01*
X95852381Y-89104761D01*
X95852381Y-89390476D01*
X95804762Y-89485714D01*
X95757143Y-89533333D01*
X106952381Y-77916666D02*
X106476190Y-78250000D01*
X106952381Y-78488095D02*
X105952381Y-78488095D01*
X105952381Y-78107142D01*
X106000000Y-78011904D01*
X106047619Y-77964285D01*
X106142857Y-77916666D01*
X106285714Y-77916666D01*
X106380952Y-77964285D01*
X106428571Y-78011904D01*
X106476190Y-78107142D01*
X106476190Y-78488095D01*
X106285714Y-77059523D02*
X106952381Y-77059523D01*
X105904762Y-77297619D02*
X106619048Y-77535714D01*
X106619048Y-76916666D01*
X93952381Y-89966666D02*
X93476190Y-90300000D01*
X93952381Y-90538095D02*
X92952381Y-90538095D01*
X92952381Y-90157142D01*
X93000000Y-90061904D01*
X93047619Y-90014285D01*
X93142857Y-89966666D01*
X93285714Y-89966666D01*
X93380952Y-90014285D01*
X93428571Y-90061904D01*
X93476190Y-90157142D01*
X93476190Y-90538095D01*
X92952381Y-89061904D02*
X92952381Y-89538095D01*
X93428571Y-89585714D01*
X93380952Y-89538095D01*
X93333333Y-89442857D01*
X93333333Y-89204761D01*
X93380952Y-89109523D01*
X93428571Y-89061904D01*
X93523810Y-89014285D01*
X93761905Y-89014285D01*
X93857143Y-89061904D01*
X93904762Y-89109523D01*
X93952381Y-89204761D01*
X93952381Y-89442857D01*
X93904762Y-89538095D01*
X93857143Y-89585714D01*
X84752381Y-105766666D02*
X84276190Y-106100000D01*
X84752381Y-106338095D02*
X83752381Y-106338095D01*
X83752381Y-105957142D01*
X83800000Y-105861904D01*
X83847619Y-105814285D01*
X83942857Y-105766666D01*
X84085714Y-105766666D01*
X84180952Y-105814285D01*
X84228571Y-105861904D01*
X84276190Y-105957142D01*
X84276190Y-106338095D01*
X83752381Y-104909523D02*
X83752381Y-105100000D01*
X83800000Y-105195238D01*
X83847619Y-105242857D01*
X83990476Y-105338095D01*
X84180952Y-105385714D01*
X84561905Y-105385714D01*
X84657143Y-105338095D01*
X84704762Y-105290476D01*
X84752381Y-105195238D01*
X84752381Y-105004761D01*
X84704762Y-104909523D01*
X84657143Y-104861904D01*
X84561905Y-104814285D01*
X84323810Y-104814285D01*
X84228571Y-104861904D01*
X84180952Y-104909523D01*
X84133333Y-105004761D01*
X84133333Y-105195238D01*
X84180952Y-105290476D01*
X84228571Y-105338095D01*
X84323810Y-105385714D01*
X114552381Y-96766666D02*
X114076190Y-97100000D01*
X114552381Y-97338095D02*
X113552381Y-97338095D01*
X113552381Y-96957142D01*
X113600000Y-96861904D01*
X113647619Y-96814285D01*
X113742857Y-96766666D01*
X113885714Y-96766666D01*
X113980952Y-96814285D01*
X114028571Y-96861904D01*
X114076190Y-96957142D01*
X114076190Y-97338095D01*
X113552381Y-96433333D02*
X113552381Y-95766666D01*
X114552381Y-96195238D01*
X86152381Y-93566666D02*
X85676190Y-93900000D01*
X86152381Y-94138095D02*
X85152381Y-94138095D01*
X85152381Y-93757142D01*
X85200000Y-93661904D01*
X85247619Y-93614285D01*
X85342857Y-93566666D01*
X85485714Y-93566666D01*
X85580952Y-93614285D01*
X85628571Y-93661904D01*
X85676190Y-93757142D01*
X85676190Y-94138095D01*
X85580952Y-92995238D02*
X85533333Y-93090476D01*
X85485714Y-93138095D01*
X85390476Y-93185714D01*
X85342857Y-93185714D01*
X85247619Y-93138095D01*
X85200000Y-93090476D01*
X85152381Y-92995238D01*
X85152381Y-92804761D01*
X85200000Y-92709523D01*
X85247619Y-92661904D01*
X85342857Y-92614285D01*
X85390476Y-92614285D01*
X85485714Y-92661904D01*
X85533333Y-92709523D01*
X85580952Y-92804761D01*
X85580952Y-92995238D01*
X85628571Y-93090476D01*
X85676190Y-93138095D01*
X85771429Y-93185714D01*
X85961905Y-93185714D01*
X86057143Y-93138095D01*
X86104762Y-93090476D01*
X86152381Y-92995238D01*
X86152381Y-92804761D01*
X86104762Y-92709523D01*
X86057143Y-92661904D01*
X85961905Y-92614285D01*
X85771429Y-92614285D01*
X85676190Y-92661904D01*
X85628571Y-92709523D01*
X85580952Y-92804761D01*
X112852381Y-96766666D02*
X112376190Y-97100000D01*
X112852381Y-97338095D02*
X111852381Y-97338095D01*
X111852381Y-96957142D01*
X111900000Y-96861904D01*
X111947619Y-96814285D01*
X112042857Y-96766666D01*
X112185714Y-96766666D01*
X112280952Y-96814285D01*
X112328571Y-96861904D01*
X112376190Y-96957142D01*
X112376190Y-97338095D01*
X112852381Y-96290476D02*
X112852381Y-96100000D01*
X112804762Y-96004761D01*
X112757143Y-95957142D01*
X112614286Y-95861904D01*
X112423810Y-95814285D01*
X112042857Y-95814285D01*
X111947619Y-95861904D01*
X111900000Y-95909523D01*
X111852381Y-96004761D01*
X111852381Y-96195238D01*
X111900000Y-96290476D01*
X111947619Y-96338095D01*
X112042857Y-96385714D01*
X112280952Y-96385714D01*
X112376190Y-96338095D01*
X112423810Y-96290476D01*
X112471429Y-96195238D01*
X112471429Y-96004761D01*
X112423810Y-95909523D01*
X112376190Y-95861904D01*
X112280952Y-95814285D01*
X119979762Y-102833333D02*
X120027381Y-102690476D01*
X120027381Y-102452380D01*
X119979762Y-102357142D01*
X119932143Y-102309523D01*
X119836905Y-102261904D01*
X119741667Y-102261904D01*
X119646429Y-102309523D01*
X119598810Y-102357142D01*
X119551190Y-102452380D01*
X119503571Y-102642857D01*
X119455952Y-102738095D01*
X119408333Y-102785714D01*
X119313095Y-102833333D01*
X119217857Y-102833333D01*
X119122619Y-102785714D01*
X119075000Y-102738095D01*
X119027381Y-102642857D01*
X119027381Y-102404761D01*
X119075000Y-102261904D01*
X119027381Y-101928571D02*
X120027381Y-101690476D01*
X119313095Y-101499999D01*
X120027381Y-101309523D01*
X119027381Y-101071428D01*
X120027381Y-100166666D02*
X120027381Y-100738095D01*
X120027381Y-100452381D02*
X119027381Y-100452381D01*
X119170238Y-100547619D01*
X119265476Y-100642857D01*
X119313095Y-100738095D01*
X80904762Y-101533333D02*
X80952381Y-101390476D01*
X80952381Y-101152380D01*
X80904762Y-101057142D01*
X80857143Y-101009523D01*
X80761905Y-100961904D01*
X80666667Y-100961904D01*
X80571429Y-101009523D01*
X80523810Y-101057142D01*
X80476190Y-101152380D01*
X80428571Y-101342857D01*
X80380952Y-101438095D01*
X80333333Y-101485714D01*
X80238095Y-101533333D01*
X80142857Y-101533333D01*
X80047619Y-101485714D01*
X80000000Y-101438095D01*
X79952381Y-101342857D01*
X79952381Y-101104761D01*
X80000000Y-100961904D01*
X79952381Y-100628571D02*
X80952381Y-100390476D01*
X80238095Y-100199999D01*
X80952381Y-100009523D01*
X79952381Y-99771428D01*
X80047619Y-99438095D02*
X80000000Y-99390476D01*
X79952381Y-99295238D01*
X79952381Y-99057142D01*
X80000000Y-98961904D01*
X80047619Y-98914285D01*
X80142857Y-98866666D01*
X80238095Y-98866666D01*
X80380952Y-98914285D01*
X80952381Y-99485714D01*
X80952381Y-98866666D01*
X110688095Y-86452381D02*
X110688095Y-87261905D01*
X110735714Y-87357143D01*
X110783333Y-87404762D01*
X110878571Y-87452381D01*
X111069048Y-87452381D01*
X111164286Y-87404762D01*
X111211905Y-87357143D01*
X111259524Y-87261905D01*
X111259524Y-86452381D01*
X112259524Y-87452381D02*
X111688095Y-87452381D01*
X111973809Y-87452381D02*
X111973809Y-86452381D01*
X111878571Y-86595238D01*
X111783333Y-86690476D01*
X111688095Y-86738095D01*
X82788095Y-96902381D02*
X82788095Y-97711905D01*
X82835714Y-97807143D01*
X82883333Y-97854762D01*
X82978571Y-97902381D01*
X83169048Y-97902381D01*
X83264286Y-97854762D01*
X83311905Y-97807143D01*
X83359524Y-97711905D01*
X83359524Y-96902381D01*
X83788095Y-96997619D02*
X83835714Y-96950000D01*
X83930952Y-96902381D01*
X84169048Y-96902381D01*
X84264286Y-96950000D01*
X84311905Y-96997619D01*
X84359524Y-97092857D01*
X84359524Y-97188095D01*
X84311905Y-97330952D01*
X83740476Y-97902381D01*
X84359524Y-97902381D01*
X106038095Y-99902381D02*
X106038095Y-100711905D01*
X106085714Y-100807143D01*
X106133333Y-100854762D01*
X106228571Y-100902381D01*
X106419048Y-100902381D01*
X106514286Y-100854762D01*
X106561905Y-100807143D01*
X106609524Y-100711905D01*
X106609524Y-99902381D01*
X106990476Y-99902381D02*
X107609524Y-99902381D01*
X107276190Y-100283333D01*
X107419048Y-100283333D01*
X107514286Y-100330952D01*
X107561905Y-100378571D01*
X107609524Y-100473810D01*
X107609524Y-100711905D01*
X107561905Y-100807143D01*
X107514286Y-100854762D01*
X107419048Y-100902381D01*
X107133333Y-100902381D01*
X107038095Y-100854762D01*
X106990476Y-100807143D01*
X88841905Y-118032381D02*
X88841905Y-117032381D01*
X89222858Y-117032381D01*
X89318096Y-117080000D01*
X89365715Y-117127619D01*
X89413334Y-117222857D01*
X89413334Y-117365714D01*
X89365715Y-117460952D01*
X89318096Y-117508571D01*
X89222858Y-117556190D01*
X88841905Y-117556190D01*
X90270477Y-117365714D02*
X90270477Y-118032381D01*
X90032381Y-116984762D02*
X89794286Y-117699048D01*
X90413334Y-117699048D01*
X92939329Y-77073202D02*
X93727340Y-76457540D01*
X93961878Y-76757735D01*
X93982988Y-76862101D01*
X93974781Y-76928943D01*
X93929050Y-77025101D01*
X93816477Y-77113053D01*
X93712111Y-77134163D01*
X93645270Y-77125956D01*
X93549111Y-77080224D01*
X93314573Y-76780029D01*
X94238636Y-77266661D02*
X94305477Y-77274868D01*
X94401636Y-77320600D01*
X94548222Y-77508222D01*
X94569332Y-77612588D01*
X94561125Y-77679429D01*
X94515394Y-77775588D01*
X94440345Y-77834222D01*
X94298455Y-77884649D01*
X93496356Y-77786164D01*
X93877480Y-78273980D01*
X89757143Y-99066666D02*
X89804762Y-99114285D01*
X89852381Y-99257142D01*
X89852381Y-99352380D01*
X89804762Y-99495238D01*
X89709524Y-99590476D01*
X89614286Y-99638095D01*
X89423810Y-99685714D01*
X89280952Y-99685714D01*
X89090476Y-99638095D01*
X88995238Y-99590476D01*
X88900000Y-99495238D01*
X88852381Y-99352380D01*
X88852381Y-99257142D01*
X88900000Y-99114285D01*
X88947619Y-99066666D01*
X88852381Y-98161904D02*
X88852381Y-98638095D01*
X89328571Y-98685714D01*
X89280952Y-98638095D01*
X89233333Y-98542857D01*
X89233333Y-98304761D01*
X89280952Y-98209523D01*
X89328571Y-98161904D01*
X89423810Y-98114285D01*
X89661905Y-98114285D01*
X89757143Y-98161904D01*
X89804762Y-98209523D01*
X89852381Y-98304761D01*
X89852381Y-98542857D01*
X89804762Y-98638095D01*
X89757143Y-98685714D01*
X89570569Y-103880892D02*
X89570569Y-103118987D01*
X89951521Y-103499939D02*
X89189616Y-103499939D01*
M02*
