G04 #@! TF.FileFunction,Legend,Bot*
%FSLAX46Y46*%
G04 Gerber Fmt 4.6, Leading zero omitted, Abs format (unit mm)*
G04 Created by KiCad (PCBNEW 4.0.2+dfsg1-stable) date Mon 17 Oct 2016 06:19:30 PM CST*
%MOMM*%
G01*
G04 APERTURE LIST*
%ADD10C,0.100000*%
%ADD11C,0.150000*%
G04 APERTURE END LIST*
D10*
D11*
X100350000Y-115650000D02*
X99650000Y-115650000D01*
X99650000Y-116850000D02*
X100350000Y-116850000D01*
X111073223Y-110828249D02*
X110578249Y-111323223D01*
X111426777Y-112171751D02*
X111921751Y-111676777D01*
X115650000Y-99650000D02*
X115650000Y-100350000D01*
X116850000Y-100350000D02*
X116850000Y-99650000D01*
X110578249Y-88676777D02*
X111073223Y-89171751D01*
X111921751Y-88323223D02*
X111426777Y-87828249D01*
X99650000Y-84350000D02*
X100350000Y-84350000D01*
X100350000Y-83150000D02*
X99650000Y-83150000D01*
X88926777Y-89171751D02*
X89421751Y-88676777D01*
X88573223Y-87828249D02*
X88078249Y-88323223D01*
X84350000Y-100350000D02*
X84350000Y-99650000D01*
X83150000Y-99650000D02*
X83150000Y-100350000D01*
X89421751Y-111323223D02*
X88926777Y-110828249D01*
X88078249Y-111676777D02*
X88573223Y-112171751D01*
X96500000Y-122600000D02*
X103500000Y-122600000D01*
X96500000Y-117400000D02*
X103500000Y-117400000D01*
X103500000Y-117400000D02*
X103500000Y-118400000D01*
X113363604Y-118313351D02*
X118313351Y-113363604D01*
X109686649Y-114636396D02*
X114636396Y-109686649D01*
X114636396Y-109686649D02*
X115343503Y-110393755D01*
X122600000Y-103500000D02*
X122600000Y-96500000D01*
X117400000Y-103500000D02*
X117400000Y-96500000D01*
X117400000Y-96500000D02*
X118400000Y-96500000D01*
X118313351Y-86636396D02*
X113363604Y-81686649D01*
X114636396Y-90313351D02*
X109686649Y-85363604D01*
X109686649Y-85363604D02*
X110393755Y-84656497D01*
X103500000Y-77400000D02*
X96500000Y-77400000D01*
X103500000Y-82600000D02*
X96500000Y-82600000D01*
X96500000Y-82600000D02*
X96500000Y-81600000D01*
X77400000Y-96500000D02*
X77400000Y-103500000D01*
X82600000Y-96500000D02*
X82600000Y-103500000D01*
X82600000Y-103500000D02*
X81600000Y-103500000D01*
X81686649Y-113363604D02*
X86636396Y-118313351D01*
X85363604Y-109686649D02*
X90313351Y-114636396D01*
X90313351Y-114636396D02*
X89606245Y-115343503D01*
X86636396Y-81686649D02*
X81686649Y-86636396D01*
X90313351Y-85363604D02*
X85363604Y-90313351D01*
X85363604Y-90313351D02*
X84656497Y-89606245D01*
X97166666Y-116607143D02*
X97214285Y-116654762D01*
X97357142Y-116702381D01*
X97452380Y-116702381D01*
X97595238Y-116654762D01*
X97690476Y-116559524D01*
X97738095Y-116464286D01*
X97785714Y-116273810D01*
X97785714Y-116130952D01*
X97738095Y-115940476D01*
X97690476Y-115845238D01*
X97595238Y-115750000D01*
X97452380Y-115702381D01*
X97357142Y-115702381D01*
X97214285Y-115750000D01*
X97166666Y-115797619D01*
X96595238Y-116130952D02*
X96690476Y-116083333D01*
X96738095Y-116035714D01*
X96785714Y-115940476D01*
X96785714Y-115892857D01*
X96738095Y-115797619D01*
X96690476Y-115750000D01*
X96595238Y-115702381D01*
X96404761Y-115702381D01*
X96309523Y-115750000D01*
X96261904Y-115797619D01*
X96214285Y-115892857D01*
X96214285Y-115940476D01*
X96261904Y-116035714D01*
X96309523Y-116083333D01*
X96404761Y-116130952D01*
X96595238Y-116130952D01*
X96690476Y-116178571D01*
X96738095Y-116226190D01*
X96785714Y-116321429D01*
X96785714Y-116511905D01*
X96738095Y-116607143D01*
X96690476Y-116654762D01*
X96595238Y-116702381D01*
X96404761Y-116702381D01*
X96309523Y-116654762D01*
X96261904Y-116607143D01*
X96214285Y-116511905D01*
X96214285Y-116321429D01*
X96261904Y-116226190D01*
X96309523Y-116178571D01*
X96404761Y-116130952D01*
X109620389Y-113634688D02*
X109687732Y-113634688D01*
X109822419Y-113567344D01*
X109889763Y-113500001D01*
X109957107Y-113365313D01*
X109957107Y-113230626D01*
X109923435Y-113129611D01*
X109822420Y-112961253D01*
X109721404Y-112860237D01*
X109553045Y-112759222D01*
X109452030Y-112725550D01*
X109317343Y-112725550D01*
X109182656Y-112792894D01*
X109115312Y-112860237D01*
X109047969Y-112994924D01*
X109047969Y-113062268D01*
X109351015Y-114038748D02*
X109216328Y-114173435D01*
X109115312Y-114207107D01*
X109047969Y-114207107D01*
X108879610Y-114173436D01*
X108711252Y-114072421D01*
X108441877Y-113803046D01*
X108408206Y-113702031D01*
X108408206Y-113634688D01*
X108441877Y-113533672D01*
X108576565Y-113398985D01*
X108677580Y-113365313D01*
X108744924Y-113365313D01*
X108845939Y-113398985D01*
X109014297Y-113567343D01*
X109047969Y-113668359D01*
X109047970Y-113735703D01*
X109014298Y-113836718D01*
X108879610Y-113971405D01*
X108778595Y-114005077D01*
X108711251Y-114005076D01*
X108610236Y-113971405D01*
X116607143Y-102607143D02*
X116654762Y-102559524D01*
X116702381Y-102416667D01*
X116702381Y-102321429D01*
X116654762Y-102178571D01*
X116559524Y-102083333D01*
X116464286Y-102035714D01*
X116273810Y-101988095D01*
X116130952Y-101988095D01*
X115940476Y-102035714D01*
X115845238Y-102083333D01*
X115750000Y-102178571D01*
X115702381Y-102321429D01*
X115702381Y-102416667D01*
X115750000Y-102559524D01*
X115797619Y-102607143D01*
X116702381Y-103559524D02*
X116702381Y-102988095D01*
X116702381Y-103273809D02*
X115702381Y-103273809D01*
X115845238Y-103178571D01*
X115940476Y-103083333D01*
X115988095Y-102988095D01*
X115702381Y-104178571D02*
X115702381Y-104273810D01*
X115750000Y-104369048D01*
X115797619Y-104416667D01*
X115892857Y-104464286D01*
X116083333Y-104511905D01*
X116321429Y-104511905D01*
X116511905Y-104464286D01*
X116607143Y-104416667D01*
X116654762Y-104369048D01*
X116702381Y-104273810D01*
X116702381Y-104178571D01*
X116654762Y-104083333D01*
X116607143Y-104035714D01*
X116511905Y-103988095D01*
X116321429Y-103940476D01*
X116083333Y-103940476D01*
X115892857Y-103988095D01*
X115797619Y-104035714D01*
X115750000Y-104083333D01*
X115702381Y-104178571D01*
X113702030Y-91457107D02*
X113702030Y-91524450D01*
X113769374Y-91659137D01*
X113836717Y-91726481D01*
X113971405Y-91793825D01*
X114106092Y-91793825D01*
X114207107Y-91760153D01*
X114375465Y-91659138D01*
X114476481Y-91558122D01*
X114577496Y-91389763D01*
X114611168Y-91288748D01*
X114611168Y-91154061D01*
X114543824Y-91019374D01*
X114476481Y-90952030D01*
X114341794Y-90884687D01*
X114274450Y-90884687D01*
X112961252Y-90851015D02*
X113365313Y-91255076D01*
X113163283Y-91053046D02*
X113870390Y-90345939D01*
X113836718Y-90514298D01*
X113836718Y-90648985D01*
X113870390Y-90750000D01*
X112287817Y-90177580D02*
X112691878Y-90581641D01*
X112489848Y-90379611D02*
X113196955Y-89672504D01*
X113163283Y-89840863D01*
X113163283Y-89975550D01*
X113196955Y-90076565D01*
X103892857Y-84107143D02*
X103940476Y-84154762D01*
X104083333Y-84202381D01*
X104178571Y-84202381D01*
X104321429Y-84154762D01*
X104416667Y-84059524D01*
X104464286Y-83964286D01*
X104511905Y-83773810D01*
X104511905Y-83630952D01*
X104464286Y-83440476D01*
X104416667Y-83345238D01*
X104321429Y-83250000D01*
X104178571Y-83202381D01*
X104083333Y-83202381D01*
X103940476Y-83250000D01*
X103892857Y-83297619D01*
X102940476Y-84202381D02*
X103511905Y-84202381D01*
X103226191Y-84202381D02*
X103226191Y-83202381D01*
X103321429Y-83345238D01*
X103416667Y-83440476D01*
X103511905Y-83488095D01*
X102559524Y-83297619D02*
X102511905Y-83250000D01*
X102416667Y-83202381D01*
X102178571Y-83202381D01*
X102083333Y-83250000D01*
X102035714Y-83297619D01*
X101988095Y-83392857D01*
X101988095Y-83488095D01*
X102035714Y-83630952D01*
X102607143Y-84202381D01*
X101988095Y-84202381D01*
X91707107Y-86047970D02*
X91774450Y-86047970D01*
X91909137Y-85980626D01*
X91976481Y-85913283D01*
X92043825Y-85778595D01*
X92043825Y-85643908D01*
X92010153Y-85542893D01*
X91909138Y-85374535D01*
X91808122Y-85273519D01*
X91639763Y-85172504D01*
X91538748Y-85138832D01*
X91404061Y-85138832D01*
X91269374Y-85206176D01*
X91202030Y-85273519D01*
X91134687Y-85408206D01*
X91134687Y-85475550D01*
X91101015Y-86788748D02*
X91505076Y-86384687D01*
X91303046Y-86586717D02*
X90595939Y-85879610D01*
X90764298Y-85913282D01*
X90898985Y-85913282D01*
X91000000Y-85879610D01*
X90158206Y-86317343D02*
X89720473Y-86755076D01*
X90225550Y-86788747D01*
X90124534Y-86889763D01*
X90090862Y-86990778D01*
X90090862Y-87058122D01*
X90124535Y-87159138D01*
X90292893Y-87327496D01*
X90393908Y-87361168D01*
X90461252Y-87361168D01*
X90562267Y-87327496D01*
X90764298Y-87125465D01*
X90797970Y-87024450D01*
X90797970Y-86957107D01*
X84107143Y-96107143D02*
X84154762Y-96059524D01*
X84202381Y-95916667D01*
X84202381Y-95821429D01*
X84154762Y-95678571D01*
X84059524Y-95583333D01*
X83964286Y-95535714D01*
X83773810Y-95488095D01*
X83630952Y-95488095D01*
X83440476Y-95535714D01*
X83345238Y-95583333D01*
X83250000Y-95678571D01*
X83202381Y-95821429D01*
X83202381Y-95916667D01*
X83250000Y-96059524D01*
X83297619Y-96107143D01*
X84202381Y-97059524D02*
X84202381Y-96488095D01*
X84202381Y-96773809D02*
X83202381Y-96773809D01*
X83345238Y-96678571D01*
X83440476Y-96583333D01*
X83488095Y-96488095D01*
X83535714Y-97916667D02*
X84202381Y-97916667D01*
X83154762Y-97678571D02*
X83869048Y-97440476D01*
X83869048Y-98059524D01*
X91202030Y-114457107D02*
X91202030Y-114524450D01*
X91269374Y-114659137D01*
X91336717Y-114726481D01*
X91471405Y-114793825D01*
X91606092Y-114793825D01*
X91707107Y-114760153D01*
X91875465Y-114659138D01*
X91976481Y-114558122D01*
X92077496Y-114389763D01*
X92111168Y-114288748D01*
X92111168Y-114154061D01*
X92043824Y-114019374D01*
X91976481Y-113952030D01*
X91841794Y-113884687D01*
X91774450Y-113884687D01*
X90461252Y-113851015D02*
X90865313Y-114255076D01*
X90663283Y-114053046D02*
X91370390Y-113345939D01*
X91336718Y-113514298D01*
X91336718Y-113648985D01*
X91370390Y-113750000D01*
X90528595Y-112504145D02*
X90865313Y-112840863D01*
X90562268Y-113211252D01*
X90562268Y-113143908D01*
X90528596Y-113042893D01*
X90360237Y-112874534D01*
X90259222Y-112840862D01*
X90191878Y-112840862D01*
X90090862Y-112874535D01*
X89922504Y-113042893D01*
X89888832Y-113143908D01*
X89888832Y-113211252D01*
X89922504Y-113312267D01*
X90090863Y-113480626D01*
X90191878Y-113514298D01*
X90259222Y-113514298D01*
M02*
