M48
;DRILL file {KiCad 4.0.2+dfsg1-stable} date Mon 17 Oct 2016 06:19:36 PM CST
;FORMAT={-:-/ absolute / inch / decimal}
FMAT,2
INCH,TZ
T1C0.016
T2C0.020
T3C0.022
%
G90
G05
M72
T1
X3.1833Y-3.9756
X3.185Y-3.752
X3.2244Y-3.5433
X3.2845Y-3.5006
X3.311Y-3.6102
X3.34Y-3.9178
X3.3896Y-3.6722
X3.3943Y-3.7245
X3.4229Y-3.4852
X3.4764Y-3.6929
X3.5039Y-3.7992
X3.5482Y-3.3742
X3.5526Y-3.4762
X3.5561Y-4.402
X3.5606Y-3.6236
X3.5878Y-3.5135
X3.5971Y-3.3002
X3.6134Y-3.3757
X3.6134Y-3.6351
X3.7087Y-3.5354
X3.8305Y-3.5062
X3.9229Y-3.4239
X3.9446Y-3.071
X4.0758Y-4.4291
X4.0933Y-3.5055
X4.1339Y-4.6063
X4.1433Y-3.0916
X4.252Y-4.6614
X4.252Y-4.7638
X4.3665Y-4.0693
X4.497Y-3.5413
T2
X3.7992Y-3.0133G85X3.7992Y-3.0389
G05
X4.0748Y-3.0133G85X4.0748Y-3.0389
G05
T3
X3.8445Y-3.1324G85X3.8327Y-3.1324
G05
X4.0414Y-3.1324G85X4.0296Y-3.1324
G05
T0
M30
