G04 #@! TF.FileFunction,Copper,L1,Top,Signal*
%FSLAX46Y46*%
G04 Gerber Fmt 4.6, Leading zero omitted, Abs format (unit mm)*
G04 Created by KiCad (PCBNEW 4.0.2+dfsg1-stable) date Mon 17 Oct 2016 06:19:30 PM CST*
%MOMM*%
G01*
G04 APERTURE LIST*
%ADD10C,0.100000*%
%ADD11R,0.750000X1.200000*%
%ADD12R,1.501140X2.999740*%
%ADD13R,1.220000X0.910000*%
%ADD14R,0.797560X0.797560*%
%ADD15R,1.700000X0.650000*%
%ADD16R,0.400000X1.350000*%
%ADD17O,1.250000X1.250000*%
%ADD18O,1.800000X1.550000*%
%ADD19R,0.900000X1.200000*%
%ADD20R,1.500000X0.700000*%
%ADD21R,0.800000X1.000000*%
%ADD22R,0.650000X1.060000*%
%ADD23R,5.500000X5.500000*%
%ADD24R,6.000000X6.000000*%
%ADD25C,1.727200*%
%ADD26C,0.600000*%
%ADD27C,0.500000*%
%ADD28C,0.300000*%
%ADD29C,0.254000*%
G04 APERTURE END LIST*
D10*
D11*
X107400000Y-87850000D03*
X107400000Y-85950000D03*
X109100000Y-87850000D03*
X109100000Y-85950000D03*
X82600000Y-101750000D03*
X82600000Y-103650000D03*
X87400000Y-91550000D03*
X87400000Y-89650000D03*
X114000000Y-104550000D03*
X114000000Y-102650000D03*
D12*
X116200000Y-103898980D03*
X116200000Y-99901020D03*
D13*
X103100000Y-84865000D03*
X103100000Y-88135000D03*
X100800000Y-84865000D03*
X100800000Y-88135000D03*
X105400000Y-84865000D03*
X105400000Y-88135000D03*
D14*
X91700000Y-88149300D03*
X91700000Y-86650700D03*
X108500000Y-81499300D03*
X108500000Y-80000700D03*
X86000000Y-103849300D03*
X86000000Y-102350700D03*
X115800000Y-94949300D03*
X115800000Y-93450700D03*
D13*
X110400000Y-95035000D03*
X110400000Y-91765000D03*
D15*
X103950000Y-97105000D03*
X103950000Y-95835000D03*
X103950000Y-94565000D03*
X103950000Y-93295000D03*
X96650000Y-93295000D03*
X96650000Y-94565000D03*
X96650000Y-95835000D03*
X96650000Y-97105000D03*
D16*
X101300900Y-79562540D03*
X100650900Y-79562540D03*
X100000900Y-79562540D03*
X99350900Y-79562540D03*
X98700900Y-79562540D03*
D17*
X102500900Y-79562540D03*
X97500900Y-79562540D03*
D18*
X103500900Y-76862540D03*
X96500900Y-76862540D03*
D19*
X98750000Y-87850000D03*
X98750000Y-85650000D03*
X97000000Y-87850000D03*
X97000000Y-85650000D03*
X95250000Y-85650000D03*
X95250000Y-87850000D03*
X106500000Y-79650000D03*
X106500000Y-81850000D03*
X93500000Y-85700000D03*
X93500000Y-87900000D03*
X84300000Y-101400000D03*
X84300000Y-103600000D03*
X114100000Y-92500000D03*
X114100000Y-94700000D03*
X85700000Y-89300000D03*
X85700000Y-91500000D03*
X112400000Y-94700000D03*
X112400000Y-92500000D03*
D10*
G36*
X93662571Y-80298770D02*
X94216666Y-81007980D01*
X93271053Y-81746774D01*
X92716958Y-81037564D01*
X93662571Y-80298770D01*
X93662571Y-80298770D01*
G37*
G36*
X91928947Y-81653226D02*
X92483042Y-82362436D01*
X91537429Y-83101230D01*
X90983334Y-82392020D01*
X91928947Y-81653226D01*
X91928947Y-81653226D01*
G37*
D20*
X121325000Y-102250000D03*
X121325000Y-99250000D03*
X121325000Y-97750000D03*
D21*
X124175000Y-103650000D03*
X124175000Y-96350000D03*
X121975000Y-96350000D03*
X121975000Y-103650000D03*
D20*
X78675000Y-97750000D03*
X78675000Y-100750000D03*
X78675000Y-102250000D03*
D21*
X75825000Y-96350000D03*
X75825000Y-103650000D03*
X78025000Y-103650000D03*
X78025000Y-96350000D03*
D22*
X115150000Y-85900000D03*
X114200000Y-85900000D03*
X113250000Y-85900000D03*
X113250000Y-88100000D03*
X115150000Y-88100000D03*
X87250000Y-96100000D03*
X86300000Y-96100000D03*
X85350000Y-96100000D03*
X85350000Y-98300000D03*
X87250000Y-98300000D03*
X86300000Y-98300000D03*
X110750000Y-99100000D03*
X109800000Y-99100000D03*
X108850000Y-99100000D03*
X108850000Y-101300000D03*
X110750000Y-101300000D03*
D23*
X84500000Y-112500000D03*
X115500000Y-112500000D03*
D24*
X100000000Y-112500000D03*
D10*
G36*
X90493962Y-78631066D02*
X91855014Y-77567696D01*
X93106038Y-79168934D01*
X91744986Y-80232304D01*
X90493962Y-78631066D01*
X90493962Y-78631066D01*
G37*
D25*
X89704626Y-80343687D02*
X89892280Y-80583873D01*
X87703078Y-81907467D02*
X87890732Y-82147653D01*
X85701531Y-83471247D02*
X85889185Y-83711433D01*
X83699984Y-85035028D02*
X83887638Y-85275214D01*
X81698436Y-86598808D02*
X81886090Y-86838994D01*
D10*
G36*
X89662571Y-83398770D02*
X90216666Y-84107980D01*
X89271053Y-84846774D01*
X88716958Y-84137564D01*
X89662571Y-83398770D01*
X89662571Y-83398770D01*
G37*
G36*
X87928947Y-84753226D02*
X88483042Y-85462436D01*
X87537429Y-86201230D01*
X86983334Y-85492020D01*
X87928947Y-84753226D01*
X87928947Y-84753226D01*
G37*
D12*
X91300000Y-96901020D03*
X91300000Y-100898980D03*
D26*
X97294500Y-89057000D03*
X103968900Y-89040300D03*
X110908200Y-103359800D03*
X81900000Y-90000000D03*
X84100000Y-91700000D03*
X80900000Y-95300000D03*
X89000000Y-96500000D03*
X88300000Y-93800000D03*
X94200000Y-89800000D03*
X108000000Y-118400000D03*
X105000000Y-117000000D03*
X108000000Y-121000000D03*
X86941600Y-88524200D03*
X114223500Y-89948500D03*
X90326100Y-111811500D03*
X103526200Y-112500000D03*
X84834900Y-99513200D03*
X86214100Y-94603100D03*
X86097000Y-93274200D03*
X80855000Y-100979200D03*
X91130400Y-89243500D03*
X90439700Y-92038800D03*
X90123700Y-85705700D03*
X99641000Y-86967500D03*
X91780700Y-85741800D03*
X91780700Y-92330800D03*
X91365800Y-83824200D03*
X83425500Y-88915100D03*
X90235100Y-88294500D03*
X100194000Y-78002400D03*
X105240000Y-78525500D03*
D27*
X78675000Y-97750000D02*
X79875300Y-97750000D01*
X110750000Y-99100000D02*
X110750000Y-98119700D01*
X108850000Y-99100000D02*
X108850000Y-98119700D01*
X108850000Y-99100000D02*
X108850000Y-100080300D01*
X105400000Y-88135000D02*
X105400000Y-89040300D01*
X106574700Y-88020600D02*
X106460300Y-88135000D01*
X106574700Y-87850000D02*
X106574700Y-88020600D01*
X105400000Y-88135000D02*
X106460300Y-88135000D01*
X107400000Y-87850000D02*
X106574700Y-87850000D01*
X107400000Y-87850000D02*
X108225300Y-87850000D01*
X109100000Y-87850000D02*
X108225300Y-87850000D01*
X96457000Y-89057000D02*
X97294500Y-89057000D01*
X95250000Y-87850000D02*
X96457000Y-89057000D01*
X105400000Y-89040300D02*
X103968900Y-89040300D01*
X108850000Y-98119700D02*
X110750000Y-98119700D01*
X108062400Y-103359800D02*
X110908200Y-103359800D01*
X108062400Y-100572500D02*
X108062400Y-103359800D01*
X108554600Y-100080300D02*
X108062400Y-100572500D01*
X108850000Y-100080300D02*
X108554600Y-100080300D01*
X81606200Y-99480900D02*
X79875300Y-97750000D01*
X81606200Y-104281000D02*
X81606200Y-99480900D01*
X82025600Y-104700400D02*
X81606200Y-104281000D01*
X106721800Y-104700400D02*
X82025600Y-104700400D01*
X108062400Y-103359800D02*
X106721800Y-104700400D01*
X109100000Y-87850000D02*
X109339600Y-87850000D01*
X110400000Y-95035000D02*
X110400000Y-94129700D01*
X110481200Y-94048500D02*
X110400000Y-94129700D01*
X110481200Y-93550400D02*
X110481200Y-94048500D01*
X110481200Y-93550400D02*
X111480000Y-93550400D01*
X113049600Y-93550400D02*
X114100000Y-92500000D01*
X111480000Y-93550400D02*
X113049600Y-93550400D01*
X111480000Y-90850300D02*
X113250000Y-89080300D01*
X111480000Y-93550400D02*
X111480000Y-90850300D01*
X113250000Y-88100000D02*
X113250000Y-89080300D01*
X108500000Y-81499300D02*
X108500000Y-82348400D01*
X109339600Y-92408800D02*
X110481200Y-93550400D01*
X109339600Y-87850000D02*
X109339600Y-92408800D01*
X109933600Y-83782000D02*
X108500000Y-82348400D01*
X109933600Y-87256000D02*
X109933600Y-83782000D01*
X109339600Y-87850000D02*
X109933600Y-87256000D01*
D28*
X84100000Y-91700000D02*
X83600000Y-91700000D01*
X83600000Y-91700000D02*
X81900000Y-90000000D01*
X84100000Y-91700000D02*
X84100000Y-92100000D01*
X84100000Y-92100000D02*
X80900000Y-95300000D01*
X89000000Y-96500000D02*
X89000000Y-94500000D01*
X88100000Y-98300000D02*
X89000000Y-97400000D01*
X89000000Y-97400000D02*
X89000000Y-96500000D01*
X87250000Y-98300000D02*
X88100000Y-98300000D01*
X89000000Y-94500000D02*
X88300000Y-93800000D01*
X93500000Y-87900000D02*
X93500000Y-89100000D01*
X93500000Y-89100000D02*
X94200000Y-89800000D01*
X108000000Y-121000000D02*
X108000000Y-118400000D01*
X106600000Y-117000000D02*
X108000000Y-118400000D01*
X105000000Y-117000000D02*
X106600000Y-117000000D01*
X87250000Y-98300000D02*
X87250000Y-97859800D01*
X91300000Y-96901000D02*
X90199100Y-96901000D01*
X109100000Y-85950000D02*
X107400000Y-85950000D01*
X93500000Y-87900000D02*
X93900200Y-87900000D01*
X103950000Y-93295000D02*
X102749700Y-93295000D01*
X99595700Y-90141000D02*
X102749700Y-93295000D01*
X95993700Y-90141000D02*
X99595700Y-90141000D01*
X93900200Y-88047500D02*
X95993700Y-90141000D01*
X93900200Y-87900000D02*
X93900200Y-88047500D01*
X82600000Y-103650000D02*
X83325300Y-103650000D01*
X86300000Y-96100000D02*
X86300000Y-96980300D01*
X89240300Y-97859800D02*
X90199100Y-96901000D01*
X87250000Y-97859800D02*
X89240300Y-97859800D01*
X86370500Y-96980300D02*
X86300000Y-96980300D01*
X87250000Y-97859800D02*
X86370500Y-96980300D01*
X85860600Y-97419700D02*
X86300000Y-96980300D01*
X85350000Y-97419700D02*
X85860600Y-97419700D01*
X85350000Y-98300000D02*
X85350000Y-97419700D01*
X87400000Y-88982600D02*
X87400000Y-89650000D01*
X86941600Y-88524200D02*
X87400000Y-88982600D01*
X112400000Y-94700000D02*
X113200300Y-94700000D01*
X116743000Y-102158000D02*
X116200000Y-102158000D01*
X117312400Y-101588600D02*
X116743000Y-102158000D01*
X117312400Y-98202000D02*
X117312400Y-101588600D01*
X115710400Y-96600000D02*
X117312400Y-98202000D01*
X114400000Y-96600000D02*
X115710400Y-96600000D01*
X113200300Y-95400300D02*
X114400000Y-96600000D01*
X113200300Y-94700000D02*
X113200300Y-95400300D01*
X109800000Y-101756500D02*
X109800000Y-99100000D01*
X110228800Y-102185300D02*
X109800000Y-101756500D01*
X112347600Y-102185300D02*
X110228800Y-102185300D01*
X112833300Y-101699600D02*
X112347600Y-102185300D01*
X114557000Y-101699600D02*
X112833300Y-101699600D01*
X115015400Y-102158000D02*
X114557000Y-101699600D01*
X116200000Y-102158000D02*
X115015400Y-102158000D01*
X114200000Y-85900000D02*
X114200000Y-86780300D01*
X114223500Y-86803800D02*
X114200000Y-86780300D01*
X114223500Y-89948500D02*
X114223500Y-86803800D01*
X96500900Y-76862500D02*
X96500900Y-77987800D01*
X98700900Y-78368400D02*
X98700900Y-78662300D01*
X100206800Y-76862500D02*
X98700900Y-78368400D01*
X103500900Y-76862500D02*
X100206800Y-76862500D01*
X96881500Y-78368400D02*
X96500900Y-77987800D01*
X98700900Y-78368400D02*
X96881500Y-78368400D01*
X105699700Y-81786000D02*
X105699700Y-81850000D01*
X103476200Y-79562500D02*
X105699700Y-81786000D01*
X102500900Y-79562500D02*
X103476200Y-79562500D01*
X106305100Y-81850000D02*
X105699700Y-81850000D01*
X106305100Y-81850000D02*
X106360400Y-81850000D01*
X94449700Y-87350500D02*
X93900200Y-87900000D01*
X94449700Y-83589000D02*
X94449700Y-87350500D01*
X97500900Y-80537800D02*
X94449700Y-83589000D01*
X97500900Y-79562500D02*
X97500900Y-80537800D01*
X98700900Y-79562500D02*
X98700900Y-79112400D01*
X98700900Y-79112400D02*
X98700900Y-78662300D01*
X98476200Y-79337100D02*
X98476200Y-79562500D01*
X98700900Y-79112400D02*
X98476200Y-79337100D01*
X97500900Y-79562500D02*
X98476200Y-79562500D01*
X112400000Y-94700000D02*
X111599700Y-94700000D01*
X116200000Y-102158000D02*
X116200000Y-103899000D01*
X114000000Y-104550000D02*
X114725300Y-104550000D01*
X115099100Y-104176200D02*
X114725300Y-104550000D01*
X115099100Y-103899000D02*
X115099100Y-104176200D01*
X116200000Y-103899000D02*
X115099100Y-103899000D01*
X85350000Y-98300000D02*
X85350000Y-99180300D01*
X85250600Y-102350400D02*
X85100400Y-102350400D01*
X85250900Y-102350700D02*
X85250600Y-102350400D01*
X83325300Y-103015400D02*
X83325300Y-103650000D01*
X83990300Y-102350400D02*
X83325300Y-103015400D01*
X85100400Y-102350400D02*
X83990300Y-102350400D01*
X86000000Y-102350700D02*
X85250900Y-102350700D01*
X100800000Y-88135000D02*
X101760300Y-88135000D01*
X106500000Y-81850000D02*
X106430200Y-81850000D01*
X106430200Y-81850000D02*
X106360400Y-81850000D01*
X107400000Y-85950000D02*
X106674700Y-85950000D01*
X103100000Y-88135000D02*
X101760300Y-88135000D01*
X103100000Y-89162600D02*
X103100000Y-88135000D01*
X108693400Y-94756000D02*
X103100000Y-89162600D01*
X108693400Y-94949800D02*
X108693400Y-94756000D01*
X109594000Y-95850400D02*
X108693400Y-94949800D01*
X111149600Y-95850400D02*
X109594000Y-95850400D01*
X111599700Y-95400300D02*
X111149600Y-95850400D01*
X111599700Y-94700000D02*
X111599700Y-95400300D01*
X103100000Y-88135000D02*
X103100000Y-87329700D01*
X104724200Y-85705500D02*
X103100000Y-87329700D01*
X106430200Y-85705500D02*
X104724200Y-85705500D01*
X106430200Y-81850000D02*
X106430200Y-85705500D01*
X106430200Y-85705500D02*
X106674700Y-85950000D01*
X91014600Y-112500000D02*
X100000000Y-112500000D01*
X90326100Y-111811500D02*
X91014600Y-112500000D01*
X100000000Y-112500000D02*
X103526200Y-112500000D01*
X84834900Y-99513200D02*
X85100400Y-99513200D01*
X85100400Y-99429900D02*
X85100400Y-99513200D01*
X85350000Y-99180300D02*
X85100400Y-99429900D01*
X85100400Y-99513200D02*
X85100400Y-102350400D01*
X85597500Y-95219700D02*
X86214100Y-94603100D01*
X85350000Y-95219700D02*
X85597500Y-95219700D01*
X85350000Y-96100000D02*
X85350000Y-95219700D01*
X82600000Y-96522600D02*
X82600000Y-101750000D01*
X85848400Y-93274200D02*
X82600000Y-96522600D01*
X86097000Y-93274200D02*
X85848400Y-93274200D01*
D27*
X91300000Y-100899000D02*
X92500900Y-100899000D01*
X95349700Y-97105000D02*
X94900700Y-97554000D01*
X95524800Y-97105000D02*
X95349700Y-97105000D01*
X92500900Y-99953800D02*
X92500900Y-100899000D01*
X94900700Y-97554000D02*
X92500900Y-99953800D01*
X96087400Y-97105000D02*
X95524800Y-97105000D01*
X87400000Y-91550000D02*
X88225300Y-91550000D01*
X90241900Y-92895200D02*
X94900700Y-97554000D01*
X89570500Y-92895200D02*
X90241900Y-92895200D01*
X88225300Y-91550000D02*
X89570500Y-92895200D01*
X116200000Y-99901000D02*
X114999100Y-99901000D01*
X110750000Y-101300000D02*
X110750000Y-100319700D01*
X96087400Y-97105000D02*
X96650000Y-97105000D01*
X96650000Y-97105000D02*
X97950300Y-97105000D01*
X111533100Y-99901000D02*
X114999100Y-99901000D01*
X111114400Y-100319700D02*
X111533100Y-99901000D01*
X110750000Y-100319700D02*
X111114400Y-100319700D01*
X98725600Y-97880300D02*
X97950300Y-97105000D01*
X106311600Y-97880300D02*
X98725600Y-97880300D01*
X106821500Y-97370400D02*
X106311600Y-97880300D01*
X111009300Y-97370400D02*
X106821500Y-97370400D01*
X111533100Y-97894200D02*
X111009300Y-97370400D01*
X111533100Y-99901000D02*
X111533100Y-97894200D01*
X88480400Y-99280300D02*
X90099100Y-100899000D01*
X86300000Y-99280300D02*
X88480400Y-99280300D01*
X86300000Y-98300000D02*
X86300000Y-99280300D01*
X91300000Y-100899000D02*
X90099100Y-100899000D01*
D28*
X113239000Y-102685700D02*
X113274700Y-102650000D01*
X109355400Y-102685700D02*
X113239000Y-102685700D01*
X108850000Y-102180300D02*
X109355400Y-102685700D01*
X108850000Y-101300000D02*
X108850000Y-102180300D01*
X114000000Y-102650000D02*
X113274700Y-102650000D01*
X78675000Y-100750000D02*
X79775300Y-100750000D01*
X80004500Y-100979200D02*
X80855000Y-100979200D01*
X79775300Y-100750000D02*
X80004500Y-100979200D01*
X103100000Y-84865000D02*
X103100000Y-85670300D01*
X100650900Y-81610600D02*
X103100000Y-84059700D01*
X100650900Y-79562500D02*
X100650900Y-81610600D01*
X103100000Y-84865000D02*
X103100000Y-84059700D01*
X98750000Y-85650000D02*
X99550300Y-85650000D01*
X99570600Y-85670300D02*
X99550300Y-85650000D01*
X103100000Y-85670300D02*
X99570600Y-85670300D01*
X97799600Y-86600400D02*
X98750000Y-85650000D01*
X96400500Y-86600400D02*
X97799600Y-86600400D01*
X96050300Y-86250200D02*
X96400500Y-86600400D01*
X96050300Y-85650000D02*
X96050300Y-86250200D01*
X95250000Y-85650000D02*
X96050300Y-85650000D01*
X100800000Y-84865000D02*
X99839700Y-84865000D01*
X99656100Y-80932700D02*
X99656100Y-84681400D01*
X100000900Y-80587900D02*
X99656100Y-80932700D01*
X100000900Y-79562500D02*
X100000900Y-80587900D01*
X98168700Y-84681400D02*
X99656100Y-84681400D01*
X97800300Y-85049800D02*
X98168700Y-84681400D01*
X97800300Y-85650000D02*
X97800300Y-85049800D01*
X99656100Y-84681400D02*
X99839700Y-84865000D01*
X97000000Y-85650000D02*
X97800300Y-85650000D01*
X101928100Y-80587800D02*
X105400000Y-84059700D01*
X101300900Y-80587800D02*
X101928100Y-80587800D01*
X105400000Y-84865000D02*
X105400000Y-84059700D01*
X101300900Y-79562500D02*
X101300900Y-80587800D01*
X91475500Y-88898400D02*
X91130400Y-89243500D01*
X91700000Y-88898400D02*
X91475500Y-88898400D01*
X91700000Y-88149300D02*
X91700000Y-88898400D01*
X91138200Y-87400200D02*
X91700000Y-87400200D01*
X90906800Y-87168800D02*
X91138200Y-87400200D01*
X90906800Y-84607300D02*
X90906800Y-87168800D01*
X90622400Y-84322900D02*
X90906800Y-84607300D01*
X90622400Y-81644300D02*
X90622400Y-84322900D01*
X90677700Y-81589000D02*
X90622400Y-81644300D01*
X89798500Y-80463800D02*
X90677700Y-81589000D01*
X91700000Y-88149300D02*
X91700000Y-87400200D01*
X92965900Y-94565000D02*
X90439700Y-92038800D01*
X96650000Y-94565000D02*
X92965900Y-94565000D01*
X92699700Y-86400100D02*
X92449100Y-86650700D01*
X92699700Y-85700000D02*
X92699700Y-86400100D01*
X93500000Y-85700000D02*
X92699700Y-85700000D01*
X91700000Y-86650700D02*
X92449100Y-86650700D01*
X107400200Y-79650000D02*
X107750900Y-80000700D01*
X106500000Y-79650000D02*
X107400200Y-79650000D01*
X108500000Y-80000700D02*
X107750900Y-80000700D01*
X85100300Y-103698700D02*
X85250900Y-103849300D01*
X85100300Y-103600000D02*
X85100300Y-103698700D01*
X86000000Y-103849300D02*
X85250900Y-103849300D01*
X84300000Y-103600000D02*
X85100300Y-103600000D01*
X114900300Y-94798700D02*
X115050900Y-94949300D01*
X114900300Y-94700000D02*
X114900300Y-94798700D01*
X115800000Y-94949300D02*
X115050900Y-94949300D01*
X114100000Y-94700000D02*
X114900300Y-94700000D01*
X115825300Y-92676300D02*
X115800000Y-92701600D01*
X115825300Y-87371100D02*
X115825300Y-92676300D01*
X115234500Y-86780300D02*
X115825300Y-87371100D01*
X115150000Y-86780300D02*
X115234500Y-86780300D01*
X115150000Y-85900000D02*
X115150000Y-86780300D01*
X115800000Y-93450700D02*
X115800000Y-92701600D01*
D27*
X78675000Y-102250000D02*
X79875300Y-102250000D01*
X79875300Y-103594200D02*
X79875300Y-102250000D01*
X82133500Y-105852400D02*
X79875300Y-103594200D01*
X117135100Y-105852400D02*
X82133500Y-105852400D01*
X120124700Y-102862800D02*
X117135100Y-105852400D01*
X120124700Y-102250000D02*
X120124700Y-102862800D01*
X121325000Y-102250000D02*
X120124700Y-102250000D01*
X113250000Y-86390100D02*
X113250000Y-86880300D01*
X113250000Y-86390100D02*
X113250000Y-85900000D01*
X117925100Y-100050400D02*
X120124700Y-102250000D01*
X117925100Y-87169300D02*
X117925100Y-100050400D01*
X115675500Y-84919700D02*
X117925100Y-87169300D01*
X113250000Y-84919700D02*
X115675500Y-84919700D01*
X113250000Y-85900000D02*
X113250000Y-84919700D01*
X112959300Y-86880300D02*
X113250000Y-86880300D01*
X111100300Y-88739300D02*
X112959300Y-86880300D01*
X111100300Y-90187300D02*
X111100300Y-88739300D01*
X110400000Y-90887600D02*
X111100300Y-90187300D01*
X110400000Y-91765000D02*
X110400000Y-90887600D01*
D28*
X102749700Y-96862400D02*
X102749700Y-97105000D01*
X98001900Y-92114600D02*
X102749700Y-96862400D01*
X93854800Y-92114600D02*
X98001900Y-92114600D01*
X92589900Y-90849700D02*
X93854800Y-92114600D01*
X91066200Y-90849700D02*
X92589900Y-90849700D01*
X88251900Y-88035400D02*
X91066200Y-90849700D01*
X88080100Y-88035400D02*
X88251900Y-88035400D01*
X87388500Y-87343800D02*
X88080100Y-88035400D01*
X83171800Y-87343800D02*
X87388500Y-87343800D01*
X82671500Y-87844100D02*
X83171800Y-87343800D01*
X81792300Y-86718900D02*
X82671500Y-87844100D01*
X103950000Y-97105000D02*
X102749700Y-97105000D01*
X98750000Y-87850000D02*
X99150200Y-87850000D01*
X99150200Y-87850000D02*
X99550300Y-87850000D01*
X103950000Y-95835000D02*
X105150300Y-95835000D01*
X105685000Y-95300300D02*
X105150300Y-95835000D01*
X105685000Y-92568000D02*
X105685000Y-95300300D01*
X102057400Y-88940400D02*
X105685000Y-92568000D01*
X100015700Y-88940400D02*
X102057400Y-88940400D01*
X99150200Y-88074900D02*
X100015700Y-88940400D01*
X99150200Y-87850000D02*
X99150200Y-88074900D01*
X89504600Y-85705700D02*
X90123700Y-85705700D01*
X87390200Y-83591300D02*
X89504600Y-85705700D01*
X85795400Y-83591300D02*
X87390200Y-83591300D01*
X99550300Y-87058200D02*
X99641000Y-86967500D01*
X99550300Y-87850000D02*
X99550300Y-87058200D01*
X83793800Y-85155100D02*
X84673100Y-86280400D01*
X103950000Y-94565000D02*
X105150300Y-94565000D01*
X97000000Y-87850000D02*
X97800300Y-87850000D01*
X84919100Y-86280400D02*
X84673100Y-86280400D01*
X85482200Y-86843500D02*
X84919100Y-86280400D01*
X87810800Y-86843500D02*
X85482200Y-86843500D01*
X90861100Y-89893800D02*
X87810800Y-86843500D01*
X91400400Y-89893800D02*
X90861100Y-89893800D01*
X91828500Y-90321900D02*
X91400400Y-89893800D01*
X93123300Y-90321900D02*
X91828500Y-90321900D01*
X93651100Y-90849700D02*
X93123300Y-90321900D01*
X97793500Y-90849700D02*
X93651100Y-90849700D01*
X101508800Y-94565000D02*
X97793500Y-90849700D01*
X103950000Y-94565000D02*
X101508800Y-94565000D01*
X105150300Y-92764300D02*
X105150300Y-94565000D01*
X102026700Y-89640700D02*
X105150300Y-92764300D01*
X98990800Y-89640700D02*
X102026700Y-89640700D01*
X97800300Y-88450200D02*
X98990800Y-89640700D01*
X97800300Y-87850000D02*
X97800300Y-88450200D01*
X93466800Y-81022800D02*
X94031400Y-81745400D01*
X92744900Y-93295000D02*
X91780700Y-92330800D01*
X96650000Y-93295000D02*
X92744900Y-93295000D01*
X91780700Y-85612000D02*
X91780700Y-85741800D01*
X93466800Y-83925900D02*
X91780700Y-85612000D01*
X93466800Y-82310000D02*
X93466800Y-83925900D01*
X94031400Y-81745400D02*
X93466800Y-82310000D01*
X92902300Y-80300200D02*
X92902200Y-80300300D01*
X92902300Y-80263300D02*
X92902300Y-80300200D01*
X92733000Y-80094000D02*
X92902300Y-80263300D01*
X91800000Y-78900000D02*
X92733000Y-80094000D01*
X93466800Y-81022800D02*
X92902200Y-80300300D01*
X88902200Y-83400300D02*
X88902300Y-83400300D01*
X88676100Y-83174200D02*
X88902200Y-83400300D01*
X88676100Y-83153000D02*
X88676100Y-83174200D01*
X88676200Y-83152900D02*
X88676100Y-83153000D01*
X87796900Y-82027600D02*
X88676200Y-83152900D01*
X89466800Y-84122800D02*
X88902300Y-83400300D01*
X96650000Y-95835000D02*
X97850300Y-95835000D01*
X97850300Y-92764000D02*
X97850300Y-95835000D01*
X97706000Y-92619700D02*
X97850300Y-92764000D01*
X93015900Y-92619700D02*
X97706000Y-92619700D01*
X91890700Y-91494500D02*
X93015900Y-92619700D01*
X90831700Y-91494500D02*
X91890700Y-91494500D01*
X87181400Y-87844200D02*
X90831700Y-91494500D01*
X83576800Y-87844200D02*
X87181400Y-87844200D01*
X83071300Y-88349700D02*
X83576800Y-87844200D01*
X81575900Y-88349700D02*
X83071300Y-88349700D01*
X80411100Y-87184900D02*
X81575900Y-88349700D01*
X80411100Y-86063900D02*
X80411100Y-87184900D01*
X84447400Y-82027600D02*
X80411100Y-86063900D01*
X87796900Y-82027600D02*
X84447400Y-82027600D01*
X90950700Y-115850400D02*
X87600300Y-112500000D01*
X109049300Y-115850400D02*
X90950700Y-115850400D01*
X112399700Y-112500000D02*
X109049300Y-115850400D01*
X84500000Y-112500000D02*
X87600300Y-112500000D01*
X113949900Y-112500000D02*
X112399700Y-112500000D01*
X113949900Y-112500000D02*
X115500000Y-112500000D01*
X123875400Y-100700100D02*
X122425300Y-99250000D01*
X123875400Y-102449800D02*
X123875400Y-100700100D01*
X123325300Y-102999900D02*
X123875400Y-102449800D01*
X123325300Y-107775000D02*
X123325300Y-102999900D01*
X118600300Y-112500000D02*
X123325300Y-107775000D01*
X115500000Y-112500000D02*
X118600300Y-112500000D01*
X121325000Y-99250000D02*
X122425300Y-99250000D01*
X85700000Y-91500000D02*
X86500300Y-91500000D01*
X87250000Y-96100000D02*
X87250000Y-95219700D01*
X87250000Y-94675800D02*
X86500300Y-93926100D01*
X87250000Y-95219700D02*
X87250000Y-94675800D01*
X86500300Y-92757800D02*
X86500300Y-91500000D01*
X86747300Y-93004800D02*
X86500300Y-92757800D01*
X86747300Y-93679100D02*
X86747300Y-93004800D01*
X86500300Y-93926100D02*
X86747300Y-93679100D01*
X84300000Y-101400000D02*
X84300000Y-100449700D01*
X84184600Y-100334300D02*
X84300000Y-100449700D01*
X84184600Y-95647300D02*
X84184600Y-100334300D01*
X85905800Y-93926100D02*
X84184600Y-95647300D01*
X86500300Y-93926100D02*
X85905800Y-93926100D01*
X84514800Y-88915100D02*
X84899700Y-89300000D01*
X83425500Y-88915100D02*
X84514800Y-88915100D01*
X85700000Y-89300000D02*
X84899700Y-89300000D01*
X91597100Y-83592900D02*
X91365800Y-83824200D01*
X91804600Y-83592900D02*
X91597100Y-83592900D01*
X92297800Y-83099700D02*
X91804600Y-83592900D01*
X91733200Y-82377200D02*
X92297800Y-83099700D01*
X113200300Y-91801900D02*
X113200300Y-92500000D01*
X113742200Y-91260000D02*
X113200300Y-91801900D01*
X113844500Y-91260000D02*
X113742200Y-91260000D01*
X115150000Y-89954500D02*
X113844500Y-91260000D01*
X115150000Y-88100000D02*
X115150000Y-89954500D01*
X112400000Y-92500000D02*
X113200300Y-92500000D01*
X87733200Y-85477200D02*
X88297800Y-86199700D01*
X90235100Y-88137000D02*
X90235100Y-88294500D01*
X88297800Y-86199700D02*
X90235100Y-88137000D01*
X104716900Y-78002400D02*
X105240000Y-78525500D01*
X100194000Y-78002400D02*
X104716900Y-78002400D01*
D29*
G36*
X112102560Y-115250000D02*
X112146838Y-115485317D01*
X112285910Y-115701441D01*
X112498110Y-115846431D01*
X112750000Y-115897440D01*
X118029679Y-115897440D01*
X117175624Y-117175624D01*
X109295381Y-122441034D01*
X100000000Y-124290000D01*
X90704619Y-122441034D01*
X82824376Y-117175624D01*
X81970321Y-115897440D01*
X87250000Y-115897440D01*
X87485317Y-115853162D01*
X87701441Y-115714090D01*
X87846431Y-115501890D01*
X87897440Y-115250000D01*
X87897440Y-113907298D01*
X90395621Y-116405479D01*
X90650293Y-116575645D01*
X90950700Y-116635400D01*
X109049300Y-116635400D01*
X109349707Y-116575645D01*
X109604379Y-116405479D01*
X112102560Y-113907298D01*
X112102560Y-115250000D01*
X112102560Y-115250000D01*
G37*
X112102560Y-115250000D02*
X112146838Y-115485317D01*
X112285910Y-115701441D01*
X112498110Y-115846431D01*
X112750000Y-115897440D01*
X118029679Y-115897440D01*
X117175624Y-117175624D01*
X109295381Y-122441034D01*
X100000000Y-124290000D01*
X90704619Y-122441034D01*
X82824376Y-117175624D01*
X81970321Y-115897440D01*
X87250000Y-115897440D01*
X87485317Y-115853162D01*
X87701441Y-115714090D01*
X87846431Y-115501890D01*
X87897440Y-115250000D01*
X87897440Y-113907298D01*
X90395621Y-116405479D01*
X90650293Y-116575645D01*
X90950700Y-116635400D01*
X109049300Y-116635400D01*
X109349707Y-116575645D01*
X109604379Y-116405479D01*
X112102560Y-113907298D01*
X112102560Y-115250000D01*
G36*
X120927560Y-104150000D02*
X120971838Y-104385317D01*
X121110910Y-104601441D01*
X121323110Y-104746431D01*
X121575000Y-104797440D01*
X122375000Y-104797440D01*
X122540300Y-104766337D01*
X122540300Y-107449842D01*
X122234778Y-107755364D01*
X122235387Y-107057381D01*
X121895845Y-106235628D01*
X121267679Y-105606364D01*
X120446519Y-105265389D01*
X119557381Y-105264613D01*
X118735628Y-105604155D01*
X118106364Y-106232321D01*
X117765389Y-107053481D01*
X117764613Y-107942619D01*
X118104155Y-108764372D01*
X118490338Y-109151230D01*
X118250000Y-109102560D01*
X112750000Y-109102560D01*
X112514683Y-109146838D01*
X112298559Y-109285910D01*
X112153569Y-109498110D01*
X112102560Y-109750000D01*
X112102560Y-111774105D01*
X112099293Y-111774755D01*
X111844621Y-111944921D01*
X108724142Y-115065400D01*
X103635000Y-115065400D01*
X103635000Y-112785750D01*
X103476250Y-112627000D01*
X100127000Y-112627000D01*
X100127000Y-112647000D01*
X99873000Y-112647000D01*
X99873000Y-112627000D01*
X96523750Y-112627000D01*
X96365000Y-112785750D01*
X96365000Y-115065400D01*
X91275858Y-115065400D01*
X88155379Y-111944921D01*
X87900707Y-111774755D01*
X87897440Y-111774105D01*
X87897440Y-109750000D01*
X87853162Y-109514683D01*
X87762436Y-109373690D01*
X96365000Y-109373690D01*
X96365000Y-112214250D01*
X96523750Y-112373000D01*
X99873000Y-112373000D01*
X99873000Y-109023750D01*
X100127000Y-109023750D01*
X100127000Y-112373000D01*
X103476250Y-112373000D01*
X103635000Y-112214250D01*
X103635000Y-109373690D01*
X103538327Y-109140301D01*
X103359698Y-108961673D01*
X103126309Y-108865000D01*
X100285750Y-108865000D01*
X100127000Y-109023750D01*
X99873000Y-109023750D01*
X99714250Y-108865000D01*
X96873691Y-108865000D01*
X96640302Y-108961673D01*
X96461673Y-109140301D01*
X96365000Y-109373690D01*
X87762436Y-109373690D01*
X87714090Y-109298559D01*
X87501890Y-109153569D01*
X87250000Y-109102560D01*
X81750000Y-109102560D01*
X81514683Y-109146838D01*
X81512239Y-109148411D01*
X81893636Y-108767679D01*
X82234611Y-107946519D01*
X82235387Y-107057381D01*
X82100458Y-106730828D01*
X82133500Y-106737401D01*
X82133505Y-106737400D01*
X117135095Y-106737400D01*
X117135100Y-106737401D01*
X117417584Y-106681210D01*
X117473775Y-106670033D01*
X117760890Y-106478190D01*
X117760891Y-106478189D01*
X120750487Y-103488592D01*
X120750490Y-103488590D01*
X120911620Y-103247440D01*
X120927560Y-103247440D01*
X120927560Y-104150000D01*
X120927560Y-104150000D01*
G37*
X120927560Y-104150000D02*
X120971838Y-104385317D01*
X121110910Y-104601441D01*
X121323110Y-104746431D01*
X121575000Y-104797440D01*
X122375000Y-104797440D01*
X122540300Y-104766337D01*
X122540300Y-107449842D01*
X122234778Y-107755364D01*
X122235387Y-107057381D01*
X121895845Y-106235628D01*
X121267679Y-105606364D01*
X120446519Y-105265389D01*
X119557381Y-105264613D01*
X118735628Y-105604155D01*
X118106364Y-106232321D01*
X117765389Y-107053481D01*
X117764613Y-107942619D01*
X118104155Y-108764372D01*
X118490338Y-109151230D01*
X118250000Y-109102560D01*
X112750000Y-109102560D01*
X112514683Y-109146838D01*
X112298559Y-109285910D01*
X112153569Y-109498110D01*
X112102560Y-109750000D01*
X112102560Y-111774105D01*
X112099293Y-111774755D01*
X111844621Y-111944921D01*
X108724142Y-115065400D01*
X103635000Y-115065400D01*
X103635000Y-112785750D01*
X103476250Y-112627000D01*
X100127000Y-112627000D01*
X100127000Y-112647000D01*
X99873000Y-112647000D01*
X99873000Y-112627000D01*
X96523750Y-112627000D01*
X96365000Y-112785750D01*
X96365000Y-115065400D01*
X91275858Y-115065400D01*
X88155379Y-111944921D01*
X87900707Y-111774755D01*
X87897440Y-111774105D01*
X87897440Y-109750000D01*
X87853162Y-109514683D01*
X87762436Y-109373690D01*
X96365000Y-109373690D01*
X96365000Y-112214250D01*
X96523750Y-112373000D01*
X99873000Y-112373000D01*
X99873000Y-109023750D01*
X100127000Y-109023750D01*
X100127000Y-112373000D01*
X103476250Y-112373000D01*
X103635000Y-112214250D01*
X103635000Y-109373690D01*
X103538327Y-109140301D01*
X103359698Y-108961673D01*
X103126309Y-108865000D01*
X100285750Y-108865000D01*
X100127000Y-109023750D01*
X99873000Y-109023750D01*
X99714250Y-108865000D01*
X96873691Y-108865000D01*
X96640302Y-108961673D01*
X96461673Y-109140301D01*
X96365000Y-109373690D01*
X87762436Y-109373690D01*
X87714090Y-109298559D01*
X87501890Y-109153569D01*
X87250000Y-109102560D01*
X81750000Y-109102560D01*
X81514683Y-109146838D01*
X81512239Y-109148411D01*
X81893636Y-108767679D01*
X82234611Y-107946519D01*
X82235387Y-107057381D01*
X82100458Y-106730828D01*
X82133500Y-106737401D01*
X82133505Y-106737400D01*
X117135095Y-106737400D01*
X117135100Y-106737401D01*
X117417584Y-106681210D01*
X117473775Y-106670033D01*
X117760890Y-106478190D01*
X117760891Y-106478189D01*
X120750487Y-103488592D01*
X120750490Y-103488590D01*
X120911620Y-103247440D01*
X120927560Y-103247440D01*
X120927560Y-104150000D01*
G36*
X113021838Y-103485317D02*
X113088329Y-103588646D01*
X113086673Y-103590302D01*
X112990000Y-103823691D01*
X112990000Y-104264250D01*
X113148750Y-104423000D01*
X113873000Y-104423000D01*
X113873000Y-104403000D01*
X114127000Y-104403000D01*
X114127000Y-104423000D01*
X114147000Y-104423000D01*
X114147000Y-104677000D01*
X114127000Y-104677000D01*
X114127000Y-104697000D01*
X113873000Y-104697000D01*
X113873000Y-104677000D01*
X113148750Y-104677000D01*
X112990000Y-104835750D01*
X112990000Y-104967400D01*
X107706380Y-104967400D01*
X108428979Y-104244800D01*
X110601378Y-104244800D01*
X110721401Y-104294638D01*
X111093367Y-104294962D01*
X111437143Y-104152917D01*
X111700392Y-103890127D01*
X111843038Y-103546599D01*
X111843104Y-103470700D01*
X113019088Y-103470700D01*
X113021838Y-103485317D01*
X113021838Y-103485317D01*
G37*
X113021838Y-103485317D02*
X113088329Y-103588646D01*
X113086673Y-103590302D01*
X112990000Y-103823691D01*
X112990000Y-104264250D01*
X113148750Y-104423000D01*
X113873000Y-104423000D01*
X113873000Y-104403000D01*
X114127000Y-104403000D01*
X114127000Y-104423000D01*
X114147000Y-104423000D01*
X114147000Y-104677000D01*
X114127000Y-104677000D01*
X114127000Y-104697000D01*
X113873000Y-104697000D01*
X113873000Y-104677000D01*
X113148750Y-104677000D01*
X112990000Y-104835750D01*
X112990000Y-104967400D01*
X107706380Y-104967400D01*
X108428979Y-104244800D01*
X110601378Y-104244800D01*
X110721401Y-104294638D01*
X111093367Y-104294962D01*
X111437143Y-104152917D01*
X111700392Y-103890127D01*
X111843038Y-103546599D01*
X111843104Y-103470700D01*
X113019088Y-103470700D01*
X113021838Y-103485317D01*
G36*
X119179521Y-102556400D02*
X117568380Y-104167540D01*
X117426820Y-104025980D01*
X116327000Y-104025980D01*
X116327000Y-104045980D01*
X116073000Y-104045980D01*
X116073000Y-104025980D01*
X116053000Y-104025980D01*
X116053000Y-103771980D01*
X116073000Y-103771980D01*
X116073000Y-103751980D01*
X116327000Y-103751980D01*
X116327000Y-103771980D01*
X117426820Y-103771980D01*
X117585570Y-103613230D01*
X117585570Y-102272801D01*
X117488897Y-102039412D01*
X117348743Y-101899257D01*
X117402011Y-101864980D01*
X117547001Y-101652780D01*
X117598010Y-101400890D01*
X117598010Y-100974890D01*
X119179521Y-102556400D01*
X119179521Y-102556400D01*
G37*
X119179521Y-102556400D02*
X117568380Y-104167540D01*
X117426820Y-104025980D01*
X116327000Y-104025980D01*
X116327000Y-104045980D01*
X116073000Y-104045980D01*
X116073000Y-104025980D01*
X116053000Y-104025980D01*
X116053000Y-103771980D01*
X116073000Y-103771980D01*
X116073000Y-103751980D01*
X116327000Y-103751980D01*
X116327000Y-103771980D01*
X117426820Y-103771980D01*
X117585570Y-103613230D01*
X117585570Y-102272801D01*
X117488897Y-102039412D01*
X117348743Y-101899257D01*
X117402011Y-101864980D01*
X117547001Y-101652780D01*
X117598010Y-101400890D01*
X117598010Y-100974890D01*
X119179521Y-102556400D01*
G36*
X95800000Y-98077440D02*
X97500000Y-98077440D01*
X97644055Y-98050334D01*
X98099808Y-98506087D01*
X98099810Y-98506090D01*
X98386925Y-98697933D01*
X98413213Y-98703162D01*
X98725600Y-98765301D01*
X98725605Y-98765300D01*
X106311595Y-98765300D01*
X106311600Y-98765301D01*
X106623987Y-98703162D01*
X106650275Y-98697933D01*
X106937390Y-98506090D01*
X107188080Y-98255400D01*
X107965000Y-98255400D01*
X107965000Y-98264791D01*
X107928569Y-98318110D01*
X107877560Y-98570000D01*
X107877560Y-99505761D01*
X107436610Y-99946710D01*
X107244767Y-100233825D01*
X107242059Y-100247440D01*
X107177399Y-100572500D01*
X107177400Y-100572505D01*
X107177400Y-102993221D01*
X106355220Y-103815400D01*
X87046220Y-103815400D01*
X87046220Y-103450520D01*
X87001942Y-103215203D01*
X86935044Y-103111241D01*
X86937107Y-103109178D01*
X87033780Y-102875789D01*
X87033780Y-102636450D01*
X86875030Y-102477700D01*
X86127000Y-102477700D01*
X86127000Y-102497700D01*
X85873000Y-102497700D01*
X85873000Y-102477700D01*
X85853000Y-102477700D01*
X85853000Y-102223700D01*
X85873000Y-102223700D01*
X85873000Y-101475670D01*
X86127000Y-101475670D01*
X86127000Y-102223700D01*
X86875030Y-102223700D01*
X87033780Y-102064950D01*
X87033780Y-101825611D01*
X86937107Y-101592222D01*
X86758479Y-101413593D01*
X86525090Y-101316920D01*
X86285750Y-101316920D01*
X86127000Y-101475670D01*
X85873000Y-101475670D01*
X85714250Y-101316920D01*
X85474910Y-101316920D01*
X85397440Y-101349009D01*
X85397440Y-100800000D01*
X85353162Y-100564683D01*
X85214090Y-100348559D01*
X85041413Y-100230574D01*
X85025245Y-100149293D01*
X84969600Y-100066014D01*
X84969600Y-99465000D01*
X85064250Y-99465000D01*
X85223000Y-99306250D01*
X85223000Y-98427000D01*
X85203000Y-98427000D01*
X85203000Y-98173000D01*
X85223000Y-98173000D01*
X85223000Y-98153000D01*
X85327560Y-98153000D01*
X85327560Y-98830000D01*
X85371838Y-99065317D01*
X85415000Y-99132393D01*
X85415000Y-99280300D01*
X85482367Y-99618975D01*
X85674210Y-99906090D01*
X85961325Y-100097933D01*
X86300000Y-100165300D01*
X88113820Y-100165300D01*
X89473308Y-101524787D01*
X89473310Y-101524790D01*
X89740264Y-101703162D01*
X89760425Y-101716633D01*
X89901990Y-101744792D01*
X89901990Y-102398850D01*
X89946268Y-102634167D01*
X90085340Y-102850291D01*
X90297540Y-102995281D01*
X90549430Y-103046290D01*
X92050570Y-103046290D01*
X92285887Y-103002012D01*
X92502011Y-102862940D01*
X92647001Y-102650740D01*
X92698010Y-102398850D01*
X92698010Y-101744792D01*
X92839575Y-101716633D01*
X93126690Y-101524790D01*
X93318533Y-101237675D01*
X93385900Y-100899000D01*
X93385900Y-100320380D01*
X95526487Y-98179792D01*
X95526490Y-98179790D01*
X95657664Y-98048616D01*
X95800000Y-98077440D01*
X95800000Y-98077440D01*
G37*
X95800000Y-98077440D02*
X97500000Y-98077440D01*
X97644055Y-98050334D01*
X98099808Y-98506087D01*
X98099810Y-98506090D01*
X98386925Y-98697933D01*
X98413213Y-98703162D01*
X98725600Y-98765301D01*
X98725605Y-98765300D01*
X106311595Y-98765300D01*
X106311600Y-98765301D01*
X106623987Y-98703162D01*
X106650275Y-98697933D01*
X106937390Y-98506090D01*
X107188080Y-98255400D01*
X107965000Y-98255400D01*
X107965000Y-98264791D01*
X107928569Y-98318110D01*
X107877560Y-98570000D01*
X107877560Y-99505761D01*
X107436610Y-99946710D01*
X107244767Y-100233825D01*
X107242059Y-100247440D01*
X107177399Y-100572500D01*
X107177400Y-100572505D01*
X107177400Y-102993221D01*
X106355220Y-103815400D01*
X87046220Y-103815400D01*
X87046220Y-103450520D01*
X87001942Y-103215203D01*
X86935044Y-103111241D01*
X86937107Y-103109178D01*
X87033780Y-102875789D01*
X87033780Y-102636450D01*
X86875030Y-102477700D01*
X86127000Y-102477700D01*
X86127000Y-102497700D01*
X85873000Y-102497700D01*
X85873000Y-102477700D01*
X85853000Y-102477700D01*
X85853000Y-102223700D01*
X85873000Y-102223700D01*
X85873000Y-101475670D01*
X86127000Y-101475670D01*
X86127000Y-102223700D01*
X86875030Y-102223700D01*
X87033780Y-102064950D01*
X87033780Y-101825611D01*
X86937107Y-101592222D01*
X86758479Y-101413593D01*
X86525090Y-101316920D01*
X86285750Y-101316920D01*
X86127000Y-101475670D01*
X85873000Y-101475670D01*
X85714250Y-101316920D01*
X85474910Y-101316920D01*
X85397440Y-101349009D01*
X85397440Y-100800000D01*
X85353162Y-100564683D01*
X85214090Y-100348559D01*
X85041413Y-100230574D01*
X85025245Y-100149293D01*
X84969600Y-100066014D01*
X84969600Y-99465000D01*
X85064250Y-99465000D01*
X85223000Y-99306250D01*
X85223000Y-98427000D01*
X85203000Y-98427000D01*
X85203000Y-98173000D01*
X85223000Y-98173000D01*
X85223000Y-98153000D01*
X85327560Y-98153000D01*
X85327560Y-98830000D01*
X85371838Y-99065317D01*
X85415000Y-99132393D01*
X85415000Y-99280300D01*
X85482367Y-99618975D01*
X85674210Y-99906090D01*
X85961325Y-100097933D01*
X86300000Y-100165300D01*
X88113820Y-100165300D01*
X89473308Y-101524787D01*
X89473310Y-101524790D01*
X89740264Y-101703162D01*
X89760425Y-101716633D01*
X89901990Y-101744792D01*
X89901990Y-102398850D01*
X89946268Y-102634167D01*
X90085340Y-102850291D01*
X90297540Y-102995281D01*
X90549430Y-103046290D01*
X92050570Y-103046290D01*
X92285887Y-103002012D01*
X92502011Y-102862940D01*
X92647001Y-102650740D01*
X92698010Y-102398850D01*
X92698010Y-101744792D01*
X92839575Y-101716633D01*
X93126690Y-101524790D01*
X93318533Y-101237675D01*
X93385900Y-100899000D01*
X93385900Y-100320380D01*
X95526487Y-98179792D01*
X95526490Y-98179790D01*
X95657664Y-98048616D01*
X95800000Y-98077440D01*
G36*
X82727000Y-103523000D02*
X82747000Y-103523000D01*
X82747000Y-103777000D01*
X82727000Y-103777000D01*
X82727000Y-103797000D01*
X82491200Y-103797000D01*
X82491200Y-103503000D01*
X82727000Y-103503000D01*
X82727000Y-103523000D01*
X82727000Y-103523000D01*
G37*
X82727000Y-103523000D02*
X82747000Y-103523000D01*
X82747000Y-103777000D01*
X82727000Y-103777000D01*
X82727000Y-103797000D01*
X82491200Y-103797000D01*
X82491200Y-103503000D01*
X82727000Y-103503000D01*
X82727000Y-103523000D01*
G36*
X114801990Y-101400890D02*
X114839223Y-101598766D01*
X114839090Y-101598559D01*
X114626890Y-101453569D01*
X114375000Y-101402560D01*
X113625000Y-101402560D01*
X113389683Y-101446838D01*
X113173559Y-101585910D01*
X113028569Y-101798110D01*
X113007794Y-101900700D01*
X111708123Y-101900700D01*
X111722440Y-101830000D01*
X111722440Y-100957350D01*
X111740190Y-100945490D01*
X111899680Y-100786000D01*
X114801990Y-100786000D01*
X114801990Y-101400890D01*
X114801990Y-101400890D01*
G37*
X114801990Y-101400890D02*
X114839223Y-101598766D01*
X114839090Y-101598559D01*
X114626890Y-101453569D01*
X114375000Y-101402560D01*
X113625000Y-101402560D01*
X113389683Y-101446838D01*
X113173559Y-101585910D01*
X113028569Y-101798110D01*
X113007794Y-101900700D01*
X111708123Y-101900700D01*
X111722440Y-101830000D01*
X111722440Y-100957350D01*
X111740190Y-100945490D01*
X111899680Y-100786000D01*
X114801990Y-100786000D01*
X114801990Y-101400890D01*
G36*
X102183211Y-76144268D02*
X102008787Y-76517428D01*
X102131112Y-76735540D01*
X103373900Y-76735540D01*
X103373900Y-76715540D01*
X103627900Y-76715540D01*
X103627900Y-76735540D01*
X104870688Y-76735540D01*
X104899296Y-76684530D01*
X109295381Y-77558966D01*
X117175624Y-82824376D01*
X122441034Y-90704619D01*
X123366681Y-95358162D01*
X123323559Y-95385910D01*
X123178569Y-95598110D01*
X123127560Y-95850000D01*
X123127560Y-96850000D01*
X123171838Y-97085317D01*
X123310910Y-97301441D01*
X123523110Y-97446431D01*
X123775000Y-97497440D01*
X123792210Y-97497440D01*
X123838231Y-97728802D01*
X123690405Y-97580718D01*
X123291767Y-97415189D01*
X122860127Y-97414812D01*
X122722440Y-97471703D01*
X122722440Y-97400000D01*
X122719253Y-97383063D01*
X122826441Y-97314090D01*
X122971431Y-97101890D01*
X123022440Y-96850000D01*
X123022440Y-95850000D01*
X122978162Y-95614683D01*
X122839090Y-95398559D01*
X122626890Y-95253569D01*
X122375000Y-95202560D01*
X121575000Y-95202560D01*
X121339683Y-95246838D01*
X121123559Y-95385910D01*
X120978569Y-95598110D01*
X120927560Y-95850000D01*
X120927560Y-96752560D01*
X120575000Y-96752560D01*
X120339683Y-96796838D01*
X120123559Y-96935910D01*
X119978569Y-97148110D01*
X119927560Y-97400000D01*
X119927560Y-98100000D01*
X119971838Y-98335317D01*
X120078759Y-98501477D01*
X119978569Y-98648110D01*
X119927560Y-98900000D01*
X119927560Y-99600000D01*
X119971838Y-99835317D01*
X120110910Y-100051441D01*
X120323110Y-100196431D01*
X120575000Y-100247440D01*
X122075000Y-100247440D01*
X122274957Y-100209815D01*
X122591110Y-100525968D01*
X122461200Y-100579646D01*
X122155718Y-100884595D01*
X122002926Y-101252560D01*
X120575000Y-101252560D01*
X120409904Y-101283625D01*
X118810100Y-99683820D01*
X118810100Y-94425933D01*
X119553481Y-94734611D01*
X120442619Y-94735387D01*
X121264372Y-94395845D01*
X121893636Y-93767679D01*
X122234611Y-92946519D01*
X122235387Y-92057381D01*
X121895845Y-91235628D01*
X121267679Y-90606364D01*
X120446519Y-90265389D01*
X119557381Y-90264613D01*
X118810100Y-90573384D01*
X118810100Y-87169305D01*
X118810101Y-87169300D01*
X118752614Y-86880300D01*
X118742733Y-86830625D01*
X118550890Y-86543510D01*
X118550887Y-86543508D01*
X116301290Y-84293910D01*
X116014175Y-84102067D01*
X115937981Y-84086911D01*
X115675500Y-84034699D01*
X115675495Y-84034700D01*
X113250000Y-84034700D01*
X112911325Y-84102067D01*
X112624210Y-84293910D01*
X112432367Y-84581025D01*
X112365000Y-84919700D01*
X112365000Y-85064791D01*
X112328569Y-85118110D01*
X112277560Y-85370000D01*
X112277560Y-86310461D01*
X110474510Y-88113510D01*
X110282667Y-88400625D01*
X110282667Y-88400626D01*
X110224600Y-88692542D01*
X110224600Y-88216580D01*
X110559387Y-87881792D01*
X110559390Y-87881790D01*
X110751233Y-87594675D01*
X110765574Y-87522579D01*
X110818601Y-87256000D01*
X110818600Y-87255995D01*
X110818600Y-83782005D01*
X110818601Y-83782000D01*
X110751234Y-83443326D01*
X110651373Y-83293873D01*
X110559390Y-83156210D01*
X110559387Y-83156208D01*
X109504968Y-82101788D01*
X109546220Y-81898080D01*
X109546220Y-81100520D01*
X109501942Y-80865203D01*
X109427815Y-80750007D01*
X109495211Y-80651370D01*
X109546220Y-80399480D01*
X109546220Y-79601920D01*
X109501942Y-79366603D01*
X109362870Y-79150479D01*
X109150670Y-79005489D01*
X108898780Y-78954480D01*
X108101220Y-78954480D01*
X107865903Y-78998758D01*
X107838118Y-79016637D01*
X107700607Y-78924755D01*
X107568946Y-78898566D01*
X107553162Y-78814683D01*
X107414090Y-78598559D01*
X107201890Y-78453569D01*
X106950000Y-78402560D01*
X106175108Y-78402560D01*
X106175162Y-78340333D01*
X106033117Y-77996557D01*
X105770327Y-77733308D01*
X105426799Y-77590662D01*
X105415310Y-77590652D01*
X105271979Y-77447321D01*
X105017307Y-77277155D01*
X104965356Y-77266821D01*
X104993013Y-77207652D01*
X104870688Y-76989540D01*
X103627900Y-76989540D01*
X103627900Y-77009540D01*
X103373900Y-77009540D01*
X103373900Y-76989540D01*
X102131112Y-76989540D01*
X102008787Y-77207652D01*
X102013343Y-77217400D01*
X100731506Y-77217400D01*
X100724327Y-77210208D01*
X100380799Y-77067562D01*
X100008833Y-77067238D01*
X99665057Y-77209283D01*
X99401808Y-77472073D01*
X99259162Y-77815601D01*
X99258838Y-78187567D01*
X99280544Y-78240100D01*
X99150900Y-78240100D01*
X99045195Y-78259990D01*
X99027210Y-78252540D01*
X98959650Y-78252540D01*
X98930646Y-78281544D01*
X98915583Y-78284378D01*
X98699459Y-78423450D01*
X98600900Y-78567696D01*
X98600900Y-78411290D01*
X98442150Y-78252540D01*
X98374590Y-78252540D01*
X98141201Y-78349213D01*
X98051348Y-78439066D01*
X97822440Y-78344258D01*
X97627900Y-78468638D01*
X97627900Y-79435540D01*
X97647900Y-79435540D01*
X97647900Y-79689540D01*
X97627900Y-79689540D01*
X97627900Y-80656442D01*
X97822440Y-80780822D01*
X98051348Y-80686014D01*
X98141201Y-80775867D01*
X98374590Y-80872540D01*
X98442150Y-80872540D01*
X98600900Y-80713790D01*
X98600900Y-80555473D01*
X98686810Y-80688981D01*
X98891728Y-80828996D01*
X98871100Y-80932700D01*
X98871100Y-83896400D01*
X98168700Y-83896400D01*
X97868293Y-83956155D01*
X97613621Y-84126321D01*
X97337382Y-84402560D01*
X96550000Y-84402560D01*
X96314683Y-84446838D01*
X96122773Y-84570329D01*
X95951890Y-84453569D01*
X95700000Y-84402560D01*
X94800000Y-84402560D01*
X94564683Y-84446838D01*
X94348559Y-84585910D01*
X94340233Y-84598095D01*
X94201890Y-84503569D01*
X94030038Y-84468768D01*
X94192045Y-84226306D01*
X94251800Y-83925900D01*
X94251800Y-82635158D01*
X94586479Y-82300479D01*
X94645410Y-82212282D01*
X94714643Y-82131927D01*
X94729782Y-82086010D01*
X94756645Y-82045807D01*
X94777339Y-81941774D01*
X94810552Y-81841039D01*
X94806967Y-81792823D01*
X94816400Y-81745400D01*
X94795705Y-81641362D01*
X94787841Y-81535590D01*
X94766078Y-81492417D01*
X94756645Y-81444993D01*
X94723415Y-81395260D01*
X94773442Y-81338403D01*
X94858129Y-81095753D01*
X94841739Y-80839273D01*
X94726856Y-80609376D01*
X94172761Y-79900166D01*
X94154482Y-79884082D01*
X96282606Y-79884082D01*
X96498392Y-80325827D01*
X96866801Y-80651368D01*
X97179360Y-80780822D01*
X97373900Y-80656442D01*
X97373900Y-79689540D01*
X96406055Y-79689540D01*
X96282606Y-79884082D01*
X94154482Y-79884082D01*
X93992994Y-79741994D01*
X93750344Y-79657307D01*
X93510344Y-79672644D01*
X93662814Y-79499357D01*
X93747501Y-79256707D01*
X93746498Y-79240998D01*
X96282606Y-79240998D01*
X96406055Y-79435540D01*
X97373900Y-79435540D01*
X97373900Y-78468638D01*
X97179360Y-78344258D01*
X96866801Y-78473712D01*
X96498392Y-78799253D01*
X96282606Y-79240998D01*
X93746498Y-79240998D01*
X93731111Y-79000227D01*
X93616228Y-78770330D01*
X92405481Y-77220644D01*
X92470796Y-77207652D01*
X95008787Y-77207652D01*
X95234083Y-77689646D01*
X95637519Y-78063641D01*
X96153366Y-78254779D01*
X96373900Y-78113700D01*
X96373900Y-76989540D01*
X96627900Y-76989540D01*
X96627900Y-78113700D01*
X96848434Y-78254779D01*
X97364281Y-78063641D01*
X97767717Y-77689646D01*
X97993013Y-77207652D01*
X97870688Y-76989540D01*
X96627900Y-76989540D01*
X96373900Y-76989540D01*
X95131112Y-76989540D01*
X95008787Y-77207652D01*
X92470796Y-77207652D01*
X95102323Y-76684208D01*
X95131112Y-76735540D01*
X96373900Y-76735540D01*
X96373900Y-76715540D01*
X96627900Y-76715540D01*
X96627900Y-76735540D01*
X97870688Y-76735540D01*
X97993013Y-76517428D01*
X97818435Y-76143940D01*
X100000000Y-75710000D01*
X102183211Y-76144268D01*
X102183211Y-76144268D01*
G37*
X102183211Y-76144268D02*
X102008787Y-76517428D01*
X102131112Y-76735540D01*
X103373900Y-76735540D01*
X103373900Y-76715540D01*
X103627900Y-76715540D01*
X103627900Y-76735540D01*
X104870688Y-76735540D01*
X104899296Y-76684530D01*
X109295381Y-77558966D01*
X117175624Y-82824376D01*
X122441034Y-90704619D01*
X123366681Y-95358162D01*
X123323559Y-95385910D01*
X123178569Y-95598110D01*
X123127560Y-95850000D01*
X123127560Y-96850000D01*
X123171838Y-97085317D01*
X123310910Y-97301441D01*
X123523110Y-97446431D01*
X123775000Y-97497440D01*
X123792210Y-97497440D01*
X123838231Y-97728802D01*
X123690405Y-97580718D01*
X123291767Y-97415189D01*
X122860127Y-97414812D01*
X122722440Y-97471703D01*
X122722440Y-97400000D01*
X122719253Y-97383063D01*
X122826441Y-97314090D01*
X122971431Y-97101890D01*
X123022440Y-96850000D01*
X123022440Y-95850000D01*
X122978162Y-95614683D01*
X122839090Y-95398559D01*
X122626890Y-95253569D01*
X122375000Y-95202560D01*
X121575000Y-95202560D01*
X121339683Y-95246838D01*
X121123559Y-95385910D01*
X120978569Y-95598110D01*
X120927560Y-95850000D01*
X120927560Y-96752560D01*
X120575000Y-96752560D01*
X120339683Y-96796838D01*
X120123559Y-96935910D01*
X119978569Y-97148110D01*
X119927560Y-97400000D01*
X119927560Y-98100000D01*
X119971838Y-98335317D01*
X120078759Y-98501477D01*
X119978569Y-98648110D01*
X119927560Y-98900000D01*
X119927560Y-99600000D01*
X119971838Y-99835317D01*
X120110910Y-100051441D01*
X120323110Y-100196431D01*
X120575000Y-100247440D01*
X122075000Y-100247440D01*
X122274957Y-100209815D01*
X122591110Y-100525968D01*
X122461200Y-100579646D01*
X122155718Y-100884595D01*
X122002926Y-101252560D01*
X120575000Y-101252560D01*
X120409904Y-101283625D01*
X118810100Y-99683820D01*
X118810100Y-94425933D01*
X119553481Y-94734611D01*
X120442619Y-94735387D01*
X121264372Y-94395845D01*
X121893636Y-93767679D01*
X122234611Y-92946519D01*
X122235387Y-92057381D01*
X121895845Y-91235628D01*
X121267679Y-90606364D01*
X120446519Y-90265389D01*
X119557381Y-90264613D01*
X118810100Y-90573384D01*
X118810100Y-87169305D01*
X118810101Y-87169300D01*
X118752614Y-86880300D01*
X118742733Y-86830625D01*
X118550890Y-86543510D01*
X118550887Y-86543508D01*
X116301290Y-84293910D01*
X116014175Y-84102067D01*
X115937981Y-84086911D01*
X115675500Y-84034699D01*
X115675495Y-84034700D01*
X113250000Y-84034700D01*
X112911325Y-84102067D01*
X112624210Y-84293910D01*
X112432367Y-84581025D01*
X112365000Y-84919700D01*
X112365000Y-85064791D01*
X112328569Y-85118110D01*
X112277560Y-85370000D01*
X112277560Y-86310461D01*
X110474510Y-88113510D01*
X110282667Y-88400625D01*
X110282667Y-88400626D01*
X110224600Y-88692542D01*
X110224600Y-88216580D01*
X110559387Y-87881792D01*
X110559390Y-87881790D01*
X110751233Y-87594675D01*
X110765574Y-87522579D01*
X110818601Y-87256000D01*
X110818600Y-87255995D01*
X110818600Y-83782005D01*
X110818601Y-83782000D01*
X110751234Y-83443326D01*
X110651373Y-83293873D01*
X110559390Y-83156210D01*
X110559387Y-83156208D01*
X109504968Y-82101788D01*
X109546220Y-81898080D01*
X109546220Y-81100520D01*
X109501942Y-80865203D01*
X109427815Y-80750007D01*
X109495211Y-80651370D01*
X109546220Y-80399480D01*
X109546220Y-79601920D01*
X109501942Y-79366603D01*
X109362870Y-79150479D01*
X109150670Y-79005489D01*
X108898780Y-78954480D01*
X108101220Y-78954480D01*
X107865903Y-78998758D01*
X107838118Y-79016637D01*
X107700607Y-78924755D01*
X107568946Y-78898566D01*
X107553162Y-78814683D01*
X107414090Y-78598559D01*
X107201890Y-78453569D01*
X106950000Y-78402560D01*
X106175108Y-78402560D01*
X106175162Y-78340333D01*
X106033117Y-77996557D01*
X105770327Y-77733308D01*
X105426799Y-77590662D01*
X105415310Y-77590652D01*
X105271979Y-77447321D01*
X105017307Y-77277155D01*
X104965356Y-77266821D01*
X104993013Y-77207652D01*
X104870688Y-76989540D01*
X103627900Y-76989540D01*
X103627900Y-77009540D01*
X103373900Y-77009540D01*
X103373900Y-76989540D01*
X102131112Y-76989540D01*
X102008787Y-77207652D01*
X102013343Y-77217400D01*
X100731506Y-77217400D01*
X100724327Y-77210208D01*
X100380799Y-77067562D01*
X100008833Y-77067238D01*
X99665057Y-77209283D01*
X99401808Y-77472073D01*
X99259162Y-77815601D01*
X99258838Y-78187567D01*
X99280544Y-78240100D01*
X99150900Y-78240100D01*
X99045195Y-78259990D01*
X99027210Y-78252540D01*
X98959650Y-78252540D01*
X98930646Y-78281544D01*
X98915583Y-78284378D01*
X98699459Y-78423450D01*
X98600900Y-78567696D01*
X98600900Y-78411290D01*
X98442150Y-78252540D01*
X98374590Y-78252540D01*
X98141201Y-78349213D01*
X98051348Y-78439066D01*
X97822440Y-78344258D01*
X97627900Y-78468638D01*
X97627900Y-79435540D01*
X97647900Y-79435540D01*
X97647900Y-79689540D01*
X97627900Y-79689540D01*
X97627900Y-80656442D01*
X97822440Y-80780822D01*
X98051348Y-80686014D01*
X98141201Y-80775867D01*
X98374590Y-80872540D01*
X98442150Y-80872540D01*
X98600900Y-80713790D01*
X98600900Y-80555473D01*
X98686810Y-80688981D01*
X98891728Y-80828996D01*
X98871100Y-80932700D01*
X98871100Y-83896400D01*
X98168700Y-83896400D01*
X97868293Y-83956155D01*
X97613621Y-84126321D01*
X97337382Y-84402560D01*
X96550000Y-84402560D01*
X96314683Y-84446838D01*
X96122773Y-84570329D01*
X95951890Y-84453569D01*
X95700000Y-84402560D01*
X94800000Y-84402560D01*
X94564683Y-84446838D01*
X94348559Y-84585910D01*
X94340233Y-84598095D01*
X94201890Y-84503569D01*
X94030038Y-84468768D01*
X94192045Y-84226306D01*
X94251800Y-83925900D01*
X94251800Y-82635158D01*
X94586479Y-82300479D01*
X94645410Y-82212282D01*
X94714643Y-82131927D01*
X94729782Y-82086010D01*
X94756645Y-82045807D01*
X94777339Y-81941774D01*
X94810552Y-81841039D01*
X94806967Y-81792823D01*
X94816400Y-81745400D01*
X94795705Y-81641362D01*
X94787841Y-81535590D01*
X94766078Y-81492417D01*
X94756645Y-81444993D01*
X94723415Y-81395260D01*
X94773442Y-81338403D01*
X94858129Y-81095753D01*
X94841739Y-80839273D01*
X94726856Y-80609376D01*
X94172761Y-79900166D01*
X94154482Y-79884082D01*
X96282606Y-79884082D01*
X96498392Y-80325827D01*
X96866801Y-80651368D01*
X97179360Y-80780822D01*
X97373900Y-80656442D01*
X97373900Y-79689540D01*
X96406055Y-79689540D01*
X96282606Y-79884082D01*
X94154482Y-79884082D01*
X93992994Y-79741994D01*
X93750344Y-79657307D01*
X93510344Y-79672644D01*
X93662814Y-79499357D01*
X93747501Y-79256707D01*
X93746498Y-79240998D01*
X96282606Y-79240998D01*
X96406055Y-79435540D01*
X97373900Y-79435540D01*
X97373900Y-78468638D01*
X97179360Y-78344258D01*
X96866801Y-78473712D01*
X96498392Y-78799253D01*
X96282606Y-79240998D01*
X93746498Y-79240998D01*
X93731111Y-79000227D01*
X93616228Y-78770330D01*
X92405481Y-77220644D01*
X92470796Y-77207652D01*
X95008787Y-77207652D01*
X95234083Y-77689646D01*
X95637519Y-78063641D01*
X96153366Y-78254779D01*
X96373900Y-78113700D01*
X96373900Y-76989540D01*
X96627900Y-76989540D01*
X96627900Y-78113700D01*
X96848434Y-78254779D01*
X97364281Y-78063641D01*
X97767717Y-77689646D01*
X97993013Y-77207652D01*
X97870688Y-76989540D01*
X96627900Y-76989540D01*
X96373900Y-76989540D01*
X95131112Y-76989540D01*
X95008787Y-77207652D01*
X92470796Y-77207652D01*
X95102323Y-76684208D01*
X95131112Y-76735540D01*
X96373900Y-76735540D01*
X96373900Y-76715540D01*
X96627900Y-76715540D01*
X96627900Y-76735540D01*
X97870688Y-76735540D01*
X97993013Y-76517428D01*
X97818435Y-76143940D01*
X100000000Y-75710000D01*
X102183211Y-76144268D01*
G36*
X88944708Y-93520987D02*
X88944710Y-93520990D01*
X89181340Y-93679100D01*
X89231825Y-93712833D01*
X89570500Y-93780201D01*
X89570505Y-93780200D01*
X89875320Y-93780200D01*
X90861270Y-94766150D01*
X90423120Y-94766150D01*
X90189731Y-94862823D01*
X90011103Y-95041452D01*
X89914430Y-95274841D01*
X89914430Y-96615270D01*
X90073180Y-96774020D01*
X91173000Y-96774020D01*
X91173000Y-96754020D01*
X91427000Y-96754020D01*
X91427000Y-96774020D01*
X92526820Y-96774020D01*
X92685570Y-96615270D01*
X92685570Y-96590449D01*
X93649121Y-97554000D01*
X92685570Y-98517550D01*
X92685570Y-97186770D01*
X92526820Y-97028020D01*
X91427000Y-97028020D01*
X91427000Y-97048020D01*
X91173000Y-97048020D01*
X91173000Y-97028020D01*
X90073180Y-97028020D01*
X89914430Y-97186770D01*
X89914430Y-98527199D01*
X90011103Y-98760588D01*
X90151257Y-98900743D01*
X90097989Y-98935020D01*
X89952999Y-99147220D01*
X89901990Y-99399110D01*
X89901990Y-99450310D01*
X89106190Y-98654510D01*
X89018473Y-98595900D01*
X88819075Y-98462667D01*
X88723677Y-98443691D01*
X88480400Y-98395299D01*
X88480395Y-98395300D01*
X87272440Y-98395300D01*
X87272440Y-98153000D01*
X87377000Y-98153000D01*
X87377000Y-98173000D01*
X88051250Y-98173000D01*
X88210000Y-98014250D01*
X88210000Y-97643691D01*
X88113327Y-97410302D01*
X87934699Y-97231673D01*
X87860435Y-97200912D01*
X88026441Y-97094090D01*
X88171431Y-96881890D01*
X88222440Y-96630000D01*
X88222440Y-95570000D01*
X88178162Y-95334683D01*
X88039090Y-95118559D01*
X88035000Y-95115764D01*
X88035000Y-94675800D01*
X87975245Y-94375394D01*
X87805079Y-94120721D01*
X87504287Y-93819929D01*
X87532300Y-93679100D01*
X87532300Y-93004800D01*
X87491053Y-92797440D01*
X87775000Y-92797440D01*
X88010317Y-92753162D01*
X88111666Y-92687946D01*
X88944708Y-93520987D01*
X88944708Y-93520987D01*
G37*
X88944708Y-93520987D02*
X88944710Y-93520990D01*
X89181340Y-93679100D01*
X89231825Y-93712833D01*
X89570500Y-93780201D01*
X89570505Y-93780200D01*
X89875320Y-93780200D01*
X90861270Y-94766150D01*
X90423120Y-94766150D01*
X90189731Y-94862823D01*
X90011103Y-95041452D01*
X89914430Y-95274841D01*
X89914430Y-96615270D01*
X90073180Y-96774020D01*
X91173000Y-96774020D01*
X91173000Y-96754020D01*
X91427000Y-96754020D01*
X91427000Y-96774020D01*
X92526820Y-96774020D01*
X92685570Y-96615270D01*
X92685570Y-96590449D01*
X93649121Y-97554000D01*
X92685570Y-98517550D01*
X92685570Y-97186770D01*
X92526820Y-97028020D01*
X91427000Y-97028020D01*
X91427000Y-97048020D01*
X91173000Y-97048020D01*
X91173000Y-97028020D01*
X90073180Y-97028020D01*
X89914430Y-97186770D01*
X89914430Y-98527199D01*
X90011103Y-98760588D01*
X90151257Y-98900743D01*
X90097989Y-98935020D01*
X89952999Y-99147220D01*
X89901990Y-99399110D01*
X89901990Y-99450310D01*
X89106190Y-98654510D01*
X89018473Y-98595900D01*
X88819075Y-98462667D01*
X88723677Y-98443691D01*
X88480400Y-98395299D01*
X88480395Y-98395300D01*
X87272440Y-98395300D01*
X87272440Y-98153000D01*
X87377000Y-98153000D01*
X87377000Y-98173000D01*
X88051250Y-98173000D01*
X88210000Y-98014250D01*
X88210000Y-97643691D01*
X88113327Y-97410302D01*
X87934699Y-97231673D01*
X87860435Y-97200912D01*
X88026441Y-97094090D01*
X88171431Y-96881890D01*
X88222440Y-96630000D01*
X88222440Y-95570000D01*
X88178162Y-95334683D01*
X88039090Y-95118559D01*
X88035000Y-95115764D01*
X88035000Y-94675800D01*
X87975245Y-94375394D01*
X87805079Y-94120721D01*
X87504287Y-93819929D01*
X87532300Y-93679100D01*
X87532300Y-93004800D01*
X87491053Y-92797440D01*
X87775000Y-92797440D01*
X88010317Y-92753162D01*
X88111666Y-92687946D01*
X88944708Y-93520987D01*
G36*
X117040100Y-87535879D02*
X117040100Y-97771840D01*
X116950570Y-97753710D01*
X115449430Y-97753710D01*
X115214113Y-97797988D01*
X114997989Y-97937060D01*
X114852999Y-98149260D01*
X114801990Y-98401150D01*
X114801990Y-99016000D01*
X112418100Y-99016000D01*
X112418100Y-97894205D01*
X112418101Y-97894200D01*
X112350733Y-97555526D01*
X112350733Y-97555525D01*
X112158890Y-97268410D01*
X112158887Y-97268408D01*
X111635090Y-96744610D01*
X111521929Y-96668999D01*
X111347975Y-96552767D01*
X111291784Y-96541590D01*
X111009300Y-96485399D01*
X111009295Y-96485400D01*
X106821500Y-96485400D01*
X106482825Y-96552767D01*
X106195710Y-96744610D01*
X106195708Y-96744613D01*
X105945021Y-96995300D01*
X105447440Y-96995300D01*
X105447440Y-96780000D01*
X105407700Y-96568800D01*
X105450707Y-96560245D01*
X105705379Y-96390079D01*
X106240079Y-95855379D01*
X106410245Y-95600707D01*
X106470000Y-95300300D01*
X106470000Y-92568000D01*
X106461873Y-92527145D01*
X106410245Y-92267593D01*
X106240079Y-92012921D01*
X104188424Y-89961266D01*
X104275469Y-89925300D01*
X105400000Y-89925300D01*
X105738675Y-89857933D01*
X106025790Y-89666090D01*
X106217633Y-89378975D01*
X106255955Y-89186316D01*
X106461441Y-89054090D01*
X106488576Y-89014376D01*
X106672618Y-88977767D01*
X106773110Y-89046431D01*
X107025000Y-89097440D01*
X107775000Y-89097440D01*
X108010317Y-89053162D01*
X108226441Y-88914090D01*
X108248384Y-88881975D01*
X108260910Y-88901441D01*
X108454600Y-89033784D01*
X108454600Y-92408795D01*
X108454599Y-92408800D01*
X108492919Y-92601441D01*
X108521967Y-92747475D01*
X108713810Y-93034590D01*
X109563765Y-93884544D01*
X109544044Y-93983684D01*
X109338559Y-94115910D01*
X109193569Y-94328110D01*
X109142560Y-94580000D01*
X109142560Y-95490000D01*
X109186838Y-95725317D01*
X109325910Y-95941441D01*
X109538110Y-96086431D01*
X109790000Y-96137440D01*
X111010000Y-96137440D01*
X111245317Y-96093162D01*
X111461441Y-95954090D01*
X111560738Y-95808764D01*
X111590301Y-95838327D01*
X111823690Y-95935000D01*
X112114250Y-95935000D01*
X112273000Y-95776250D01*
X112273000Y-94827000D01*
X112253000Y-94827000D01*
X112253000Y-94573000D01*
X112273000Y-94573000D01*
X112273000Y-94553000D01*
X112527000Y-94553000D01*
X112527000Y-94573000D01*
X112547000Y-94573000D01*
X112547000Y-94827000D01*
X112527000Y-94827000D01*
X112527000Y-95776250D01*
X112685750Y-95935000D01*
X112976310Y-95935000D01*
X113209699Y-95838327D01*
X113251660Y-95796366D01*
X113398110Y-95896431D01*
X113650000Y-95947440D01*
X114550000Y-95947440D01*
X114785317Y-95903162D01*
X114941616Y-95802586D01*
X115149330Y-95944511D01*
X115401220Y-95995520D01*
X116198780Y-95995520D01*
X116434097Y-95951242D01*
X116650221Y-95812170D01*
X116795211Y-95599970D01*
X116846220Y-95348080D01*
X116846220Y-94550520D01*
X116801942Y-94315203D01*
X116727815Y-94200007D01*
X116795211Y-94101370D01*
X116846220Y-93849480D01*
X116846220Y-93051920D01*
X116801942Y-92816603D01*
X116662870Y-92600479D01*
X116610300Y-92564559D01*
X116610300Y-87371100D01*
X116591204Y-87275100D01*
X116550545Y-87070693D01*
X116501475Y-86997254D01*
X117040100Y-87535879D01*
X117040100Y-87535879D01*
G37*
X117040100Y-87535879D02*
X117040100Y-97771840D01*
X116950570Y-97753710D01*
X115449430Y-97753710D01*
X115214113Y-97797988D01*
X114997989Y-97937060D01*
X114852999Y-98149260D01*
X114801990Y-98401150D01*
X114801990Y-99016000D01*
X112418100Y-99016000D01*
X112418100Y-97894205D01*
X112418101Y-97894200D01*
X112350733Y-97555526D01*
X112350733Y-97555525D01*
X112158890Y-97268410D01*
X112158887Y-97268408D01*
X111635090Y-96744610D01*
X111521929Y-96668999D01*
X111347975Y-96552767D01*
X111291784Y-96541590D01*
X111009300Y-96485399D01*
X111009295Y-96485400D01*
X106821500Y-96485400D01*
X106482825Y-96552767D01*
X106195710Y-96744610D01*
X106195708Y-96744613D01*
X105945021Y-96995300D01*
X105447440Y-96995300D01*
X105447440Y-96780000D01*
X105407700Y-96568800D01*
X105450707Y-96560245D01*
X105705379Y-96390079D01*
X106240079Y-95855379D01*
X106410245Y-95600707D01*
X106470000Y-95300300D01*
X106470000Y-92568000D01*
X106461873Y-92527145D01*
X106410245Y-92267593D01*
X106240079Y-92012921D01*
X104188424Y-89961266D01*
X104275469Y-89925300D01*
X105400000Y-89925300D01*
X105738675Y-89857933D01*
X106025790Y-89666090D01*
X106217633Y-89378975D01*
X106255955Y-89186316D01*
X106461441Y-89054090D01*
X106488576Y-89014376D01*
X106672618Y-88977767D01*
X106773110Y-89046431D01*
X107025000Y-89097440D01*
X107775000Y-89097440D01*
X108010317Y-89053162D01*
X108226441Y-88914090D01*
X108248384Y-88881975D01*
X108260910Y-88901441D01*
X108454600Y-89033784D01*
X108454600Y-92408795D01*
X108454599Y-92408800D01*
X108492919Y-92601441D01*
X108521967Y-92747475D01*
X108713810Y-93034590D01*
X109563765Y-93884544D01*
X109544044Y-93983684D01*
X109338559Y-94115910D01*
X109193569Y-94328110D01*
X109142560Y-94580000D01*
X109142560Y-95490000D01*
X109186838Y-95725317D01*
X109325910Y-95941441D01*
X109538110Y-96086431D01*
X109790000Y-96137440D01*
X111010000Y-96137440D01*
X111245317Y-96093162D01*
X111461441Y-95954090D01*
X111560738Y-95808764D01*
X111590301Y-95838327D01*
X111823690Y-95935000D01*
X112114250Y-95935000D01*
X112273000Y-95776250D01*
X112273000Y-94827000D01*
X112253000Y-94827000D01*
X112253000Y-94573000D01*
X112273000Y-94573000D01*
X112273000Y-94553000D01*
X112527000Y-94553000D01*
X112527000Y-94573000D01*
X112547000Y-94573000D01*
X112547000Y-94827000D01*
X112527000Y-94827000D01*
X112527000Y-95776250D01*
X112685750Y-95935000D01*
X112976310Y-95935000D01*
X113209699Y-95838327D01*
X113251660Y-95796366D01*
X113398110Y-95896431D01*
X113650000Y-95947440D01*
X114550000Y-95947440D01*
X114785317Y-95903162D01*
X114941616Y-95802586D01*
X115149330Y-95944511D01*
X115401220Y-95995520D01*
X116198780Y-95995520D01*
X116434097Y-95951242D01*
X116650221Y-95812170D01*
X116795211Y-95599970D01*
X116846220Y-95348080D01*
X116846220Y-94550520D01*
X116801942Y-94315203D01*
X116727815Y-94200007D01*
X116795211Y-94101370D01*
X116846220Y-93849480D01*
X116846220Y-93051920D01*
X116801942Y-92816603D01*
X116662870Y-92600479D01*
X116610300Y-92564559D01*
X116610300Y-87371100D01*
X116591204Y-87275100D01*
X116550545Y-87070693D01*
X116501475Y-86997254D01*
X117040100Y-87535879D01*
G36*
X79856021Y-87739979D02*
X81020821Y-88904779D01*
X81275493Y-89074945D01*
X81575900Y-89134700D01*
X82504565Y-89134700D01*
X82632383Y-89444043D01*
X82895173Y-89707292D01*
X83238701Y-89849938D01*
X83610667Y-89850262D01*
X83954443Y-89708217D01*
X83962574Y-89700100D01*
X84189642Y-89700100D01*
X84344621Y-89855079D01*
X84599294Y-90025245D01*
X84627170Y-90030790D01*
X84646838Y-90135317D01*
X84785910Y-90351441D01*
X84855711Y-90399134D01*
X84798559Y-90435910D01*
X84653569Y-90648110D01*
X84602560Y-90900000D01*
X84602560Y-92100000D01*
X84646838Y-92335317D01*
X84785910Y-92551441D01*
X84998110Y-92696431D01*
X85250000Y-92747440D01*
X85265002Y-92747440D01*
X82044921Y-95967521D01*
X81874755Y-96222193D01*
X81855300Y-96320000D01*
X81815000Y-96522600D01*
X81815000Y-98438121D01*
X80501090Y-97124210D01*
X80472340Y-97105000D01*
X80213975Y-96932367D01*
X80157784Y-96921190D01*
X79875300Y-96864999D01*
X79875295Y-96865000D01*
X79766797Y-96865000D01*
X79676890Y-96803569D01*
X79425000Y-96752560D01*
X79072440Y-96752560D01*
X79072440Y-95850000D01*
X79028162Y-95614683D01*
X78889090Y-95398559D01*
X78676890Y-95253569D01*
X78425000Y-95202560D01*
X77625000Y-95202560D01*
X77389683Y-95246838D01*
X77173559Y-95385910D01*
X77028569Y-95598110D01*
X76977560Y-95850000D01*
X76977560Y-96850000D01*
X77021838Y-97085317D01*
X77160910Y-97301441D01*
X77280914Y-97383436D01*
X77277560Y-97400000D01*
X77277560Y-97471575D01*
X77141767Y-97415189D01*
X76710127Y-97414812D01*
X76311200Y-97579646D01*
X76161766Y-97728819D01*
X76207790Y-97497440D01*
X76225000Y-97497440D01*
X76460317Y-97453162D01*
X76676441Y-97314090D01*
X76821431Y-97101890D01*
X76872440Y-96850000D01*
X76872440Y-95850000D01*
X76828162Y-95614683D01*
X76689090Y-95398559D01*
X76632918Y-95360178D01*
X77113800Y-92942619D01*
X77764613Y-92942619D01*
X78104155Y-93764372D01*
X78732321Y-94393636D01*
X79553481Y-94734611D01*
X80442619Y-94735387D01*
X81264372Y-94395845D01*
X81893636Y-93767679D01*
X82234611Y-92946519D01*
X82235387Y-92057381D01*
X81895845Y-91235628D01*
X81267679Y-90606364D01*
X80446519Y-90265389D01*
X79557381Y-90264613D01*
X78735628Y-90604155D01*
X78106364Y-91232321D01*
X77765389Y-92053481D01*
X77764613Y-92942619D01*
X77113800Y-92942619D01*
X77558966Y-90704619D01*
X79697948Y-87503406D01*
X79856021Y-87739979D01*
X79856021Y-87739979D01*
G37*
X79856021Y-87739979D02*
X81020821Y-88904779D01*
X81275493Y-89074945D01*
X81575900Y-89134700D01*
X82504565Y-89134700D01*
X82632383Y-89444043D01*
X82895173Y-89707292D01*
X83238701Y-89849938D01*
X83610667Y-89850262D01*
X83954443Y-89708217D01*
X83962574Y-89700100D01*
X84189642Y-89700100D01*
X84344621Y-89855079D01*
X84599294Y-90025245D01*
X84627170Y-90030790D01*
X84646838Y-90135317D01*
X84785910Y-90351441D01*
X84855711Y-90399134D01*
X84798559Y-90435910D01*
X84653569Y-90648110D01*
X84602560Y-90900000D01*
X84602560Y-92100000D01*
X84646838Y-92335317D01*
X84785910Y-92551441D01*
X84998110Y-92696431D01*
X85250000Y-92747440D01*
X85265002Y-92747440D01*
X82044921Y-95967521D01*
X81874755Y-96222193D01*
X81855300Y-96320000D01*
X81815000Y-96522600D01*
X81815000Y-98438121D01*
X80501090Y-97124210D01*
X80472340Y-97105000D01*
X80213975Y-96932367D01*
X80157784Y-96921190D01*
X79875300Y-96864999D01*
X79875295Y-96865000D01*
X79766797Y-96865000D01*
X79676890Y-96803569D01*
X79425000Y-96752560D01*
X79072440Y-96752560D01*
X79072440Y-95850000D01*
X79028162Y-95614683D01*
X78889090Y-95398559D01*
X78676890Y-95253569D01*
X78425000Y-95202560D01*
X77625000Y-95202560D01*
X77389683Y-95246838D01*
X77173559Y-95385910D01*
X77028569Y-95598110D01*
X76977560Y-95850000D01*
X76977560Y-96850000D01*
X77021838Y-97085317D01*
X77160910Y-97301441D01*
X77280914Y-97383436D01*
X77277560Y-97400000D01*
X77277560Y-97471575D01*
X77141767Y-97415189D01*
X76710127Y-97414812D01*
X76311200Y-97579646D01*
X76161766Y-97728819D01*
X76207790Y-97497440D01*
X76225000Y-97497440D01*
X76460317Y-97453162D01*
X76676441Y-97314090D01*
X76821431Y-97101890D01*
X76872440Y-96850000D01*
X76872440Y-95850000D01*
X76828162Y-95614683D01*
X76689090Y-95398559D01*
X76632918Y-95360178D01*
X77113800Y-92942619D01*
X77764613Y-92942619D01*
X78104155Y-93764372D01*
X78732321Y-94393636D01*
X79553481Y-94734611D01*
X80442619Y-94735387D01*
X81264372Y-94395845D01*
X81893636Y-93767679D01*
X82234611Y-92946519D01*
X82235387Y-92057381D01*
X81895845Y-91235628D01*
X81267679Y-90606364D01*
X80446519Y-90265389D01*
X79557381Y-90264613D01*
X78735628Y-90604155D01*
X78106364Y-91232321D01*
X77765389Y-92053481D01*
X77764613Y-92942619D01*
X77113800Y-92942619D01*
X77558966Y-90704619D01*
X79697948Y-87503406D01*
X79856021Y-87739979D01*
G36*
X93627000Y-87773000D02*
X93647000Y-87773000D01*
X93647000Y-88027000D01*
X93627000Y-88027000D01*
X93627000Y-88976250D01*
X93785750Y-89135000D01*
X94076310Y-89135000D01*
X94309699Y-89038327D01*
X94401660Y-88946366D01*
X94548110Y-89046431D01*
X94800000Y-89097440D01*
X95245861Y-89097440D01*
X95831208Y-89682787D01*
X95831210Y-89682790D01*
X96118325Y-89874633D01*
X96174516Y-89885810D01*
X96457000Y-89942001D01*
X96457005Y-89942000D01*
X96987678Y-89942000D01*
X97107701Y-89991838D01*
X97479667Y-89992162D01*
X97823443Y-89850117D01*
X97956867Y-89716925D01*
X98435721Y-90195779D01*
X98690393Y-90365945D01*
X98990800Y-90425700D01*
X101701542Y-90425700D01*
X103610843Y-92335000D01*
X102973691Y-92335000D01*
X102740302Y-92431673D01*
X102561673Y-92610301D01*
X102465000Y-92843690D01*
X102465000Y-93009250D01*
X102623750Y-93168000D01*
X103823000Y-93168000D01*
X103823000Y-93148000D01*
X104077000Y-93148000D01*
X104077000Y-93168000D01*
X104097000Y-93168000D01*
X104097000Y-93422000D01*
X104077000Y-93422000D01*
X104077000Y-93442000D01*
X103823000Y-93442000D01*
X103823000Y-93422000D01*
X102623750Y-93422000D01*
X102465000Y-93580750D01*
X102465000Y-93746310D01*
X102478955Y-93780000D01*
X101833958Y-93780000D01*
X98348579Y-90294621D01*
X98093907Y-90124455D01*
X97793500Y-90064700D01*
X93976258Y-90064700D01*
X93678379Y-89766821D01*
X93423707Y-89596655D01*
X93123300Y-89536900D01*
X92153658Y-89536900D01*
X92144274Y-89527516D01*
X92255079Y-89453479D01*
X92425245Y-89198806D01*
X92449474Y-89076999D01*
X92550221Y-89012170D01*
X92596465Y-88944490D01*
X92690301Y-89038327D01*
X92923690Y-89135000D01*
X93214250Y-89135000D01*
X93373000Y-88976250D01*
X93373000Y-88027000D01*
X93353000Y-88027000D01*
X93353000Y-87773000D01*
X93373000Y-87773000D01*
X93373000Y-87753000D01*
X93627000Y-87753000D01*
X93627000Y-87773000D01*
X93627000Y-87773000D01*
G37*
X93627000Y-87773000D02*
X93647000Y-87773000D01*
X93647000Y-88027000D01*
X93627000Y-88027000D01*
X93627000Y-88976250D01*
X93785750Y-89135000D01*
X94076310Y-89135000D01*
X94309699Y-89038327D01*
X94401660Y-88946366D01*
X94548110Y-89046431D01*
X94800000Y-89097440D01*
X95245861Y-89097440D01*
X95831208Y-89682787D01*
X95831210Y-89682790D01*
X96118325Y-89874633D01*
X96174516Y-89885810D01*
X96457000Y-89942001D01*
X96457005Y-89942000D01*
X96987678Y-89942000D01*
X97107701Y-89991838D01*
X97479667Y-89992162D01*
X97823443Y-89850117D01*
X97956867Y-89716925D01*
X98435721Y-90195779D01*
X98690393Y-90365945D01*
X98990800Y-90425700D01*
X101701542Y-90425700D01*
X103610843Y-92335000D01*
X102973691Y-92335000D01*
X102740302Y-92431673D01*
X102561673Y-92610301D01*
X102465000Y-92843690D01*
X102465000Y-93009250D01*
X102623750Y-93168000D01*
X103823000Y-93168000D01*
X103823000Y-93148000D01*
X104077000Y-93148000D01*
X104077000Y-93168000D01*
X104097000Y-93168000D01*
X104097000Y-93422000D01*
X104077000Y-93422000D01*
X104077000Y-93442000D01*
X103823000Y-93442000D01*
X103823000Y-93422000D01*
X102623750Y-93422000D01*
X102465000Y-93580750D01*
X102465000Y-93746310D01*
X102478955Y-93780000D01*
X101833958Y-93780000D01*
X98348579Y-90294621D01*
X98093907Y-90124455D01*
X97793500Y-90064700D01*
X93976258Y-90064700D01*
X93678379Y-89766821D01*
X93423707Y-89596655D01*
X93123300Y-89536900D01*
X92153658Y-89536900D01*
X92144274Y-89527516D01*
X92255079Y-89453479D01*
X92425245Y-89198806D01*
X92449474Y-89076999D01*
X92550221Y-89012170D01*
X92596465Y-88944490D01*
X92690301Y-89038327D01*
X92923690Y-89135000D01*
X93214250Y-89135000D01*
X93373000Y-88976250D01*
X93373000Y-88027000D01*
X93353000Y-88027000D01*
X93353000Y-87773000D01*
X93373000Y-87773000D01*
X93373000Y-87753000D01*
X93627000Y-87753000D01*
X93627000Y-87773000D01*
G36*
X87527000Y-89523000D02*
X87547000Y-89523000D01*
X87547000Y-89777000D01*
X87527000Y-89777000D01*
X87527000Y-89797000D01*
X87273000Y-89797000D01*
X87273000Y-89777000D01*
X87253000Y-89777000D01*
X87253000Y-89523000D01*
X87273000Y-89523000D01*
X87273000Y-89503000D01*
X87527000Y-89503000D01*
X87527000Y-89523000D01*
X87527000Y-89523000D01*
G37*
X87527000Y-89523000D02*
X87547000Y-89523000D01*
X87547000Y-89777000D01*
X87527000Y-89777000D01*
X87527000Y-89797000D01*
X87273000Y-89797000D01*
X87273000Y-89777000D01*
X87253000Y-89777000D01*
X87253000Y-89523000D01*
X87273000Y-89523000D01*
X87273000Y-89503000D01*
X87527000Y-89503000D01*
X87527000Y-89523000D01*
G36*
X104446883Y-79054443D02*
X104709673Y-79317692D01*
X105053201Y-79460338D01*
X105402560Y-79460642D01*
X105402560Y-80250000D01*
X105446838Y-80485317D01*
X105585910Y-80701441D01*
X105654006Y-80747969D01*
X105511673Y-80890302D01*
X105415000Y-81123691D01*
X105415000Y-81564250D01*
X105573750Y-81723000D01*
X106373000Y-81723000D01*
X106373000Y-81703000D01*
X106627000Y-81703000D01*
X106627000Y-81723000D01*
X106647000Y-81723000D01*
X106647000Y-81977000D01*
X106627000Y-81977000D01*
X106627000Y-82926250D01*
X106785750Y-83085000D01*
X107076310Y-83085000D01*
X107309699Y-82988327D01*
X107488327Y-82809698D01*
X107585000Y-82576309D01*
X107585000Y-82268509D01*
X107615000Y-82315130D01*
X107615000Y-82348395D01*
X107614999Y-82348400D01*
X107660334Y-82576309D01*
X107682367Y-82687075D01*
X107807127Y-82873793D01*
X107874210Y-82974190D01*
X109048600Y-84148579D01*
X109048600Y-84715000D01*
X108972998Y-84715000D01*
X108972998Y-84873748D01*
X108814250Y-84715000D01*
X108598690Y-84715000D01*
X108365301Y-84811673D01*
X108250000Y-84926975D01*
X108134699Y-84811673D01*
X107901310Y-84715000D01*
X107685750Y-84715000D01*
X107527000Y-84873750D01*
X107527000Y-85823000D01*
X108973000Y-85823000D01*
X108973000Y-85803000D01*
X109048600Y-85803000D01*
X109048600Y-86097000D01*
X108973000Y-86097000D01*
X108973000Y-86077000D01*
X107527000Y-86077000D01*
X107527000Y-86097000D01*
X107273000Y-86097000D01*
X107273000Y-86077000D01*
X106548750Y-86077000D01*
X106390000Y-86235750D01*
X106390000Y-86676309D01*
X106486673Y-86909698D01*
X106488043Y-86911068D01*
X106431766Y-86993432D01*
X106236025Y-87032367D01*
X106183234Y-87067641D01*
X106010000Y-87032560D01*
X104790000Y-87032560D01*
X104554683Y-87076838D01*
X104338559Y-87215910D01*
X104255462Y-87337527D01*
X104248327Y-87320302D01*
X104069699Y-87141673D01*
X103836310Y-87045000D01*
X103385750Y-87045000D01*
X103227000Y-87203750D01*
X103227000Y-88008000D01*
X103247000Y-88008000D01*
X103247000Y-88262000D01*
X103227000Y-88262000D01*
X103227000Y-88282000D01*
X102973000Y-88282000D01*
X102973000Y-88262000D01*
X102427916Y-88262000D01*
X102357807Y-88215155D01*
X102057400Y-88155400D01*
X100653000Y-88155400D01*
X100653000Y-88008000D01*
X100673000Y-88008000D01*
X100673000Y-87203750D01*
X100927000Y-87203750D01*
X100927000Y-88008000D01*
X101886250Y-88008000D01*
X101950000Y-87944250D01*
X102013750Y-88008000D01*
X102973000Y-88008000D01*
X102973000Y-87203750D01*
X102814250Y-87045000D01*
X102363690Y-87045000D01*
X102130301Y-87141673D01*
X101951673Y-87320302D01*
X101950000Y-87324341D01*
X101948327Y-87320302D01*
X101769699Y-87141673D01*
X101536310Y-87045000D01*
X101085750Y-87045000D01*
X100927000Y-87203750D01*
X100673000Y-87203750D01*
X100575880Y-87106630D01*
X100576162Y-86782333D01*
X100441035Y-86455300D01*
X103100000Y-86455300D01*
X103400406Y-86395545D01*
X103655079Y-86225379D01*
X103825245Y-85970706D01*
X103830401Y-85944785D01*
X103945317Y-85923162D01*
X104161441Y-85784090D01*
X104250333Y-85653992D01*
X104325910Y-85771441D01*
X104538110Y-85916431D01*
X104790000Y-85967440D01*
X106010000Y-85967440D01*
X106245317Y-85923162D01*
X106461441Y-85784090D01*
X106481087Y-85755337D01*
X106548750Y-85823000D01*
X107273000Y-85823000D01*
X107273000Y-84873750D01*
X107114250Y-84715000D01*
X106898690Y-84715000D01*
X106665301Y-84811673D01*
X106657440Y-84819534D01*
X106657440Y-84410000D01*
X106613162Y-84174683D01*
X106474090Y-83958559D01*
X106261890Y-83813569D01*
X106130759Y-83787014D01*
X106125245Y-83759293D01*
X105955079Y-83504621D01*
X104586208Y-82135750D01*
X105415000Y-82135750D01*
X105415000Y-82576309D01*
X105511673Y-82809698D01*
X105690301Y-82988327D01*
X105923690Y-83085000D01*
X106214250Y-83085000D01*
X106373000Y-82926250D01*
X106373000Y-81977000D01*
X105573750Y-81977000D01*
X105415000Y-82135750D01*
X104586208Y-82135750D01*
X103111542Y-80661084D01*
X103134999Y-80651368D01*
X103503408Y-80325827D01*
X103719194Y-79884082D01*
X103595745Y-79689540D01*
X102627900Y-79689540D01*
X102627900Y-79709540D01*
X102373900Y-79709540D01*
X102373900Y-79689540D01*
X102353900Y-79689540D01*
X102353900Y-79435540D01*
X102373900Y-79435540D01*
X102373900Y-79415540D01*
X102627900Y-79415540D01*
X102627900Y-79435540D01*
X103595745Y-79435540D01*
X103719194Y-79240998D01*
X103503408Y-78799253D01*
X103489994Y-78787400D01*
X104336543Y-78787400D01*
X104446883Y-79054443D01*
X104446883Y-79054443D01*
G37*
X104446883Y-79054443D02*
X104709673Y-79317692D01*
X105053201Y-79460338D01*
X105402560Y-79460642D01*
X105402560Y-80250000D01*
X105446838Y-80485317D01*
X105585910Y-80701441D01*
X105654006Y-80747969D01*
X105511673Y-80890302D01*
X105415000Y-81123691D01*
X105415000Y-81564250D01*
X105573750Y-81723000D01*
X106373000Y-81723000D01*
X106373000Y-81703000D01*
X106627000Y-81703000D01*
X106627000Y-81723000D01*
X106647000Y-81723000D01*
X106647000Y-81977000D01*
X106627000Y-81977000D01*
X106627000Y-82926250D01*
X106785750Y-83085000D01*
X107076310Y-83085000D01*
X107309699Y-82988327D01*
X107488327Y-82809698D01*
X107585000Y-82576309D01*
X107585000Y-82268509D01*
X107615000Y-82315130D01*
X107615000Y-82348395D01*
X107614999Y-82348400D01*
X107660334Y-82576309D01*
X107682367Y-82687075D01*
X107807127Y-82873793D01*
X107874210Y-82974190D01*
X109048600Y-84148579D01*
X109048600Y-84715000D01*
X108972998Y-84715000D01*
X108972998Y-84873748D01*
X108814250Y-84715000D01*
X108598690Y-84715000D01*
X108365301Y-84811673D01*
X108250000Y-84926975D01*
X108134699Y-84811673D01*
X107901310Y-84715000D01*
X107685750Y-84715000D01*
X107527000Y-84873750D01*
X107527000Y-85823000D01*
X108973000Y-85823000D01*
X108973000Y-85803000D01*
X109048600Y-85803000D01*
X109048600Y-86097000D01*
X108973000Y-86097000D01*
X108973000Y-86077000D01*
X107527000Y-86077000D01*
X107527000Y-86097000D01*
X107273000Y-86097000D01*
X107273000Y-86077000D01*
X106548750Y-86077000D01*
X106390000Y-86235750D01*
X106390000Y-86676309D01*
X106486673Y-86909698D01*
X106488043Y-86911068D01*
X106431766Y-86993432D01*
X106236025Y-87032367D01*
X106183234Y-87067641D01*
X106010000Y-87032560D01*
X104790000Y-87032560D01*
X104554683Y-87076838D01*
X104338559Y-87215910D01*
X104255462Y-87337527D01*
X104248327Y-87320302D01*
X104069699Y-87141673D01*
X103836310Y-87045000D01*
X103385750Y-87045000D01*
X103227000Y-87203750D01*
X103227000Y-88008000D01*
X103247000Y-88008000D01*
X103247000Y-88262000D01*
X103227000Y-88262000D01*
X103227000Y-88282000D01*
X102973000Y-88282000D01*
X102973000Y-88262000D01*
X102427916Y-88262000D01*
X102357807Y-88215155D01*
X102057400Y-88155400D01*
X100653000Y-88155400D01*
X100653000Y-88008000D01*
X100673000Y-88008000D01*
X100673000Y-87203750D01*
X100927000Y-87203750D01*
X100927000Y-88008000D01*
X101886250Y-88008000D01*
X101950000Y-87944250D01*
X102013750Y-88008000D01*
X102973000Y-88008000D01*
X102973000Y-87203750D01*
X102814250Y-87045000D01*
X102363690Y-87045000D01*
X102130301Y-87141673D01*
X101951673Y-87320302D01*
X101950000Y-87324341D01*
X101948327Y-87320302D01*
X101769699Y-87141673D01*
X101536310Y-87045000D01*
X101085750Y-87045000D01*
X100927000Y-87203750D01*
X100673000Y-87203750D01*
X100575880Y-87106630D01*
X100576162Y-86782333D01*
X100441035Y-86455300D01*
X103100000Y-86455300D01*
X103400406Y-86395545D01*
X103655079Y-86225379D01*
X103825245Y-85970706D01*
X103830401Y-85944785D01*
X103945317Y-85923162D01*
X104161441Y-85784090D01*
X104250333Y-85653992D01*
X104325910Y-85771441D01*
X104538110Y-85916431D01*
X104790000Y-85967440D01*
X106010000Y-85967440D01*
X106245317Y-85923162D01*
X106461441Y-85784090D01*
X106481087Y-85755337D01*
X106548750Y-85823000D01*
X107273000Y-85823000D01*
X107273000Y-84873750D01*
X107114250Y-84715000D01*
X106898690Y-84715000D01*
X106665301Y-84811673D01*
X106657440Y-84819534D01*
X106657440Y-84410000D01*
X106613162Y-84174683D01*
X106474090Y-83958559D01*
X106261890Y-83813569D01*
X106130759Y-83787014D01*
X106125245Y-83759293D01*
X105955079Y-83504621D01*
X104586208Y-82135750D01*
X105415000Y-82135750D01*
X105415000Y-82576309D01*
X105511673Y-82809698D01*
X105690301Y-82988327D01*
X105923690Y-83085000D01*
X106214250Y-83085000D01*
X106373000Y-82926250D01*
X106373000Y-81977000D01*
X105573750Y-81977000D01*
X105415000Y-82135750D01*
X104586208Y-82135750D01*
X103111542Y-80661084D01*
X103134999Y-80651368D01*
X103503408Y-80325827D01*
X103719194Y-79884082D01*
X103595745Y-79689540D01*
X102627900Y-79689540D01*
X102627900Y-79709540D01*
X102373900Y-79709540D01*
X102373900Y-79689540D01*
X102353900Y-79689540D01*
X102353900Y-79435540D01*
X102373900Y-79435540D01*
X102373900Y-79415540D01*
X102627900Y-79415540D01*
X102627900Y-79435540D01*
X103595745Y-79435540D01*
X103719194Y-79240998D01*
X103503408Y-78799253D01*
X103489994Y-78787400D01*
X104336543Y-78787400D01*
X104446883Y-79054443D01*
G36*
X114221838Y-86665317D02*
X114327000Y-86828743D01*
X114327000Y-86906250D01*
X114405710Y-86984960D01*
X114423390Y-87073845D01*
X114373559Y-87105910D01*
X114228569Y-87318110D01*
X114200824Y-87455120D01*
X114178162Y-87334683D01*
X114076151Y-87176153D01*
X114135000Y-86880300D01*
X114135000Y-86735209D01*
X114171431Y-86681890D01*
X114199176Y-86544880D01*
X114221838Y-86665317D01*
X114221838Y-86665317D01*
G37*
X114221838Y-86665317D02*
X114327000Y-86828743D01*
X114327000Y-86906250D01*
X114405710Y-86984960D01*
X114423390Y-87073845D01*
X114373559Y-87105910D01*
X114228569Y-87318110D01*
X114200824Y-87455120D01*
X114178162Y-87334683D01*
X114076151Y-87176153D01*
X114135000Y-86880300D01*
X114135000Y-86735209D01*
X114171431Y-86681890D01*
X114199176Y-86544880D01*
X114221838Y-86665317D01*
M02*
